<svg width="49" height="49" viewBox="0 0 49 49" fill="none" xmlns="http://www.w3.org/2000/svg">
<path fill-rule="evenodd" clip-rule="evenodd" d="M24.2422 12.819L20.6779 9.30204C16.5621 5.24081 9.88887 5.24081 5.77301 9.30204C1.65714 13.3633 1.65714 19.9479 5.77301 24.0091L24.2422 42.2331L42.7114 24.0091C46.8271 19.9479 46.8271 13.3633 42.7114 9.30204C38.5954 5.24081 31.9222 5.24081 27.8064 9.30204L24.2422 12.819ZM26.0782 7.59687C31.1487 2.59389 39.3692 2.59389 44.4394 7.59687C49.5099 12.5998 49.5099 20.7113 44.4394 25.7144L25.9702 43.9383C25.0159 44.8801 23.4685 44.8801 22.5141 43.9383L4.04489 25.7144C-1.02538 20.7113 -1.02538 12.5999 4.04489 7.59687C9.11518 2.5939 17.3358 2.59389 22.4061 7.59687L24.2422 9.4086L26.0782 7.59687Z" fill="white"/>
</svg>
