<svg width="153" height="46" viewBox="0 0 153 46" fill="none" xmlns="http://www.w3.org/2000/svg">
<g clip-path="url(#clip0_1_770)">
<path d="M131.079 13.9318H123.747C123.665 13.9321 123.584 13.9486 123.508 13.9803C123.432 14.012 123.364 14.0583 123.306 14.1166C123.248 14.1748 123.202 14.2439 123.171 14.3199C123.14 14.3958 123.124 14.4772 123.124 14.5593V26.5038H113.885V14.5667C113.885 14.4846 113.87 14.4032 113.838 14.3273C113.807 14.2513 113.761 14.1822 113.704 14.124C113.646 14.0657 113.577 14.0194 113.502 13.9877C113.426 13.956 113.345 13.9395 113.262 13.9392H105.933C105.767 13.9398 105.608 14.0062 105.491 14.1238C105.374 14.2414 105.308 14.4007 105.308 14.5667V26.5112H89.6603V14.5667C89.6606 14.4846 89.6448 14.4032 89.6137 14.3273C89.5825 14.2513 89.5367 14.1822 89.479 14.124C89.4212 14.0657 89.3524 14.0194 89.2767 13.9877C89.201 13.956 89.1199 13.9395 89.0377 13.9392H81.7081C81.5421 13.9398 81.3831 14.0062 81.266 14.1238C81.1489 14.2414 81.0831 14.4007 81.0831 14.5667V27.3806C81.0831 32.4622 77.9902 36.9855 72.1057 36.9855C66.7696 36.9855 61.8559 34.4287 61.8559 27.1608C61.8559 26.7681 61.9054 25.9774 61.9325 25.6142L63.8174 24.6754V23.26C63.8174 23.094 63.7517 22.9346 63.6346 22.8171C63.5174 22.6994 63.3584 22.6331 63.1924 22.6325H56.6483C56.6483 22.6325 55.3094 25.3943 55.6602 31.3825C56.0036 37.3117 60.848 45.8049 72.4318 45.8049C84.3835 45.8049 88.9957 36.4371 89.4454 32.4646H131.079C131.161 32.4646 131.242 32.4485 131.318 32.417C131.393 32.3856 131.462 32.3395 131.52 32.2814C131.578 32.2234 131.624 32.1544 131.655 32.0786C131.686 32.0029 131.702 31.9216 131.702 31.8396V14.5667C131.702 14.4846 131.686 14.4032 131.655 14.3273C131.624 14.2513 131.578 14.1822 131.52 14.124C131.462 14.0657 131.394 14.0194 131.318 13.9877C131.242 13.956 131.161 13.9395 131.079 13.9392" fill="#ED1C24"/>
<path d="M71.8487 22.7682C72.7016 22.7721 73.5365 22.5228 74.2476 22.0517C74.9587 21.5807 75.514 20.9092 75.8432 20.1222C76.1723 19.3353 76.2605 18.4684 76.0964 17.6314C75.9324 16.7943 75.5237 16.025 74.9218 15.4204C74.3202 14.8159 73.5525 14.4036 72.7162 14.2357C71.88 14.0679 71.0127 14.152 70.2243 14.4775C69.4358 14.803 68.7618 15.3552 68.2876 16.0641C67.8132 16.7731 67.5601 17.6068 67.5601 18.4597C67.5581 19.5995 68.0087 20.6936 68.8128 21.5015C69.6169 22.3092 70.7089 22.7649 71.8487 22.7682Z" fill="#ED1C24"/>
<path d="M98.8208 36.7507C97.9678 36.7468 97.1328 36.9962 96.4218 37.4672C95.7107 37.9383 95.1555 38.6098 94.8264 39.3966C94.4972 40.1835 94.409 41.0504 94.5731 41.8874C94.737 42.7245 95.1459 43.4939 95.7475 44.0985C96.3492 44.703 97.1169 45.1154 97.9532 45.2832C98.7895 45.451 99.6568 45.3669 100.445 45.0413C101.234 44.7158 101.908 44.1637 102.382 43.4548C102.856 42.7458 103.109 41.9121 103.109 41.0591C103.111 39.9192 102.661 38.8253 101.857 38.0174C101.052 37.2096 99.9607 36.754 98.8208 36.7507Z" fill="#ED1C24"/>
<path d="M109.157 36.7507C108.304 36.7472 107.47 36.9971 106.759 37.4684C106.048 37.9398 105.493 38.6114 105.164 39.3984C104.836 40.1853 104.748 41.052 104.912 41.8889C105.077 42.7258 105.485 43.4951 106.087 44.0994C106.689 44.7036 107.457 45.1157 108.293 45.2833C109.129 45.451 109.996 45.3667 110.785 45.0412C111.573 44.7155 112.247 44.1633 112.721 43.4545C113.195 42.7455 113.448 41.9119 113.448 41.0591C113.45 40.4944 113.34 39.935 113.125 39.4128C112.91 38.8906 112.594 38.4159 112.195 38.0158C111.797 37.6158 111.323 37.2981 110.802 37.081C110.281 36.8639 109.722 36.7516 109.157 36.7507Z" fill="#ED1C24"/>
<path d="M121.482 9.60099C122.335 9.6044 123.169 9.35458 123.88 8.88314C124.591 8.41171 125.146 7.73989 125.475 6.9528C125.803 6.16571 125.891 5.29877 125.726 4.46182C125.562 3.62487 125.153 2.85559 124.551 2.25141C123.949 1.64724 123.181 1.23538 122.344 1.06801C121.508 0.900644 120.641 0.985299 119.852 1.31126C119.064 1.63721 118.39 2.1898 117.917 2.899C117.443 3.60821 117.19 4.44212 117.19 5.29508C117.189 5.85965 117.299 6.41895 117.514 6.94099C117.729 7.46302 118.045 7.93756 118.443 8.33747C118.842 8.73737 119.315 9.05481 119.837 9.27161C120.358 9.48842 120.917 9.60034 121.482 9.60099Z" fill="#ED1C24"/>
<path d="M150.88 13.9318H141.665C141.582 13.9318 141.501 13.9482 141.424 13.98C141.348 14.0119 141.279 14.0586 141.221 14.1174C141.162 14.1763 141.116 14.246 141.086 14.3227C141.055 14.3994 141.039 14.4815 141.04 14.5642C141.067 17.2026 141.156 27.398 141.04 31.0492C140.823 37.8305 138.735 39.1695 134.79 39.2015C133.729 39.2129 132.668 39.1699 131.611 39.073C131.524 39.0647 131.436 39.0748 131.354 39.1022C131.271 39.1297 131.195 39.1743 131.131 39.2328C131.066 39.2915 131.015 39.3628 130.98 39.4426C130.944 39.5222 130.926 39.6086 130.926 39.6956V44.1424C130.926 44.2858 130.974 44.4249 131.064 44.5366C131.154 44.6482 131.28 44.7253 131.42 44.7549C134.735 45.3727 138.148 45.2222 141.396 44.3152C146.873 42.7983 149.617 37.2771 149.617 30.15V17.4891L151.49 16.0069V14.5667C151.49 14.4846 151.475 14.4032 151.443 14.3273C151.412 14.2513 151.367 14.1822 151.309 14.124C151.251 14.0657 151.181 14.0194 151.106 13.9877C151.031 13.956 150.95 13.9395 150.867 13.9392" fill="#ED1C24"/>
<path d="M61.5721 9.51465L60.5839 10.8981L59.5958 9.51465H58.9288V12.4322H59.5315V10.3669L60.5394 11.7677H60.6012L61.6067 10.3669V12.4396H62.2118V9.52454L61.5721 9.51465ZM55.5986 9.51465V10.026H56.6065V12.4322H57.2315V10.026H58.2395V9.51465H55.5986Z" fill="#ED1C24"/>
<path d="M10.3137 29.1641C10.9016 29.1641 11.5316 29.1343 12.2085 29.0726C12.2914 28.5677 12.336 28.0573 12.3419 27.5458C12.3419 26.5133 12.1137 25.7235 11.6575 25.1767C11.4331 24.906 11.149 24.6911 10.8276 24.5482C10.5062 24.4056 10.1561 24.339 9.80474 24.3541C8.92199 24.3541 8.18087 24.7609 7.58139 25.5745C6.98191 26.388 6.65252 27.4784 6.59323 28.8455C7.82003 29.0333 9.05794 29.1398 10.2988 29.1641M2.95927 37.509H1.062C1.062 37.5683 0.995297 32.1978 0.995297 31.3332C0.982008 30.6814 1.16726 30.0413 1.52643 29.4976C2.29719 28.3365 4.11788 28.7564 4.8096 28.6896C4.85076 26.7611 5.34979 25.1964 6.30665 23.9959C7.26353 22.7953 8.46168 22.1949 9.90109 22.1949C11.2186 22.1949 12.2587 22.6281 13.0212 23.4943C13.7837 24.3609 14.1617 25.5382 14.1551 27.027C14.161 28.3439 13.9533 29.653 13.54 30.9032C13.0229 31.2113 11.8535 31.3651 10.032 31.3651C9.31409 31.3657 8.59665 31.3277 7.88277 31.2514C7.16882 31.1748 6.59569 31.1008 6.15349 31.0242C5.71129 30.9476 3.99437 30.7106 3.9499 30.7006C3.28042 30.5476 2.96173 31.1822 2.96173 31.7308C2.96173 32.1877 2.98645 37.4941 2.96173 37.5214" fill="#6D6E71"/>
<path d="M21.3615 30.0781C20.1707 30.0781 19.3399 29.8912 18.8688 29.5173C18.3978 29.1435 18.1631 28.5934 18.1648 27.867C18.1588 27.1717 18.3666 26.4913 18.7602 25.9179C18.9463 25.6329 19.204 25.4017 19.5074 25.2475C19.8109 25.0931 20.1494 25.021 20.4895 25.0385C21.3557 25.0385 22.0498 25.5515 22.572 26.5776C23.1075 27.6655 23.376 28.8655 23.3551 30.0781H21.3615ZM36.8608 15.8314C33.4507 16.7478 30.2548 18.3277 27.4559 20.4806V23.2375C29.1606 23.8304 30.6255 24.663 31.6902 25.7351C32.755 26.8072 33.3923 27.9808 33.5973 29.2555C31.8632 29.8039 29.7097 30.0781 27.1373 30.0781H25.198C25.198 27.8596 24.7715 26.1041 23.9184 24.8112C23.0652 23.5183 21.9478 22.8727 20.5659 22.8743C19.9751 22.8658 19.3909 23 18.8631 23.2659C18.3353 23.5317 17.8796 23.9212 17.5348 24.4011C16.7492 25.4189 16.3564 26.6879 16.3564 28.208C16.3564 29.4844 16.6859 30.4832 17.3446 31.2045C18.0033 31.926 19.1612 32.2875 20.818 32.2892C21.5073 32.2892 23.1426 32.252 23.1748 32.2892C22.9993 33.1241 22.5176 33.7714 21.732 34.4087C20.9464 35.0461 19.8175 35.3648 18.3476 35.3648H17.1864L16.9666 37.5091H18.5675C20.3313 37.5091 21.7535 37.0793 22.8339 36.2195C23.9142 35.3599 24.6233 34.118 24.9609 32.4941H27.2336C30.8931 32.4941 33.627 31.9927 35.4353 30.9896C35.5113 30.5142 35.5477 30.0334 35.5441 29.5519C35.5595 27.883 35.0093 26.2581 33.9827 24.9421C32.9485 23.5916 31.4308 22.4981 29.4298 21.6615C31.6734 20.0395 34.1904 18.8344 36.8608 18.1041V15.8314Z" fill="#6D6E71"/>
<path d="M46.9227 30.1028C46.91 30.4858 46.785 30.8566 46.563 31.169C46.341 31.4813 46.032 31.7215 45.6745 31.8593C45.3169 31.9973 44.9267 32.0268 44.5525 31.9445C44.1782 31.8621 43.8365 31.6714 43.5699 31.396C43.3034 31.1207 43.1239 30.7732 43.0536 30.3964C42.9833 30.0197 43.0256 29.6305 43.1749 29.2776C43.3243 28.9247 43.5745 28.6239 43.8938 28.4121C44.2132 28.2004 44.5879 28.0873 44.971 28.087C45.2319 28.0903 45.4895 28.145 45.7289 28.2482C45.9685 28.3515 46.1852 28.5012 46.3667 28.6886C46.5481 28.8759 46.6906 29.0973 46.786 29.3401C46.8814 29.5828 46.9279 29.842 46.9227 30.1028Z" fill="#6D6E71"/>
</g>
<defs>
<clipPath id="clip0_1_770">
<rect width="152" height="45.1485" fill="white" transform="translate(0.242188 0.820312)"/>
</clipPath>
</defs>
</svg>
