<svg xmlns="http://www.w3.org/2000/svg" fill="none" viewBox="0 0 1529 316" height="316" width="1529">
<g clip-path="url(#clip0_610_114799)" opacity="0.1">
<path fill="url(#paint0_linear_610_114799)" d="M611.713 41.1905C603.849 40.9424 595.864 41.1574 587.768 41.8362C561.696 44.0208 534.247 51.022 506.185 62.6434C479.534 73.6813 454.18 87.4614 429.662 100.789C404.447 114.495 378.373 128.669 350.873 139.862C280.836 168.372 217.09 158.447 158.638 143.476L158.586 143.636C196.533 153.356 227.464 157.973 255.929 158.164C289.319 158.39 320.406 152.453 350.961 140.015C378.47 128.817 404.55 114.641 429.77 100.933C454.283 87.6089 479.631 73.8301 506.274 62.7966C566.94 37.6713 622.648 34.4499 671.852 53.2215C715.638 69.9257 748.749 100.693 780.77 130.447C785.268 134.628 789.919 138.949 794.498 143.134C816.972 163.677 836.571 178.585 856.179 190.05C880.218 204.108 904.761 213.25 931.21 218.002C958.258 222.861 987.591 224.223 1020.88 222.167C1052.21 220.232 1083.36 215.468 1109.7 211.064C1165.4 201.751 1221.62 190.76 1276 180.132C1290.3 177.337 1305.09 174.446 1319.64 171.631C1351.45 165.476 1389.14 158.268 1427.51 151.481C1430.56 150.94 1437.52 150.098 1446.34 149.033C1475.88 145.46 1525.32 139.479 1526.96 133.174L1526.77 133.134C1526.07 135.808 1516.01 138.789 1496.86 141.993C1480.57 144.721 1460.77 147.117 1446.31 148.867C1437.49 149.934 1430.52 150.777 1427.46 151.318C1389.09 158.106 1351.4 165.314 1319.59 171.469C1305.04 174.285 1290.25 177.175 1275.95 179.97C1221.58 190.598 1165.35 201.588 1109.66 210.9C1069.54 217.609 1024.66 224.151 979.436 222.728C963.347 222.222 947.225 220.711 931.242 217.841C871.192 207.053 828.487 173.965 794.634 143.023C790.056 138.838 785.405 134.517 780.906 130.336C748.873 100.568 715.747 69.7878 671.923 53.0693C652.941 45.8283 632.768 41.8555 611.711 41.1937L611.713 41.1905Z"></path>
<path fill="url(#paint1_linear_610_114799)" d="M603.98 48.0441C596.981 47.8237 589.895 47.9301 582.73 48.3653C556.394 49.9634 529.015 55.9714 501.35 66.2209C499.12 67.0471 496.812 67.9216 494.492 68.8185C468.606 78.8276 443.637 91.3686 419.486 103.5C395.595 115.499 370.89 127.91 344.815 138.17C308.181 152.667 272.951 157.038 239.884 156C208.432 155.011 178.939 149.132 152.019 142.419L151.961 142.6C189.684 152.009 220.705 156.4 249.583 156.422C282.921 156.449 314.101 150.535 344.911 138.344C370.995 128.079 395.704 115.667 419.6 103.664C443.744 91.5381 468.71 78.9968 494.585 68.9921C496.906 68.0952 499.214 67.2207 501.442 66.396C560.322 44.5799 617.502 42.3305 666.803 59.8902C709.476 75.0903 741.721 103.687 772.903 131.344C777.613 135.52 782.485 139.841 787.282 144.015C788.556 145.122 789.822 146.216 791.05 147.266C812.494 165.643 831.237 178.979 850.033 189.239C873.014 201.783 896.363 209.846 921.413 213.887C942.995 217.366 966.541 218.687 993.396 217.921C1018.28 217.21 1042.67 214.842 1065.33 212.389C1075.59 211.275 1086.37 209.998 1100.28 208.251C1132.19 204.222 1164.85 199.756 1200.13 194.595C1232.6 189.845 1268.02 183.93 1308.42 176.514C1350 168.851 1384.48 162.381 1416.93 156.152C1420.43 155.478 1428 154.475 1437.57 153.206C1451.81 151.318 1471.31 148.731 1487.09 145.888C1505.86 142.506 1515.51 139.49 1516.61 136.668L1516.4 136.606C1513.96 142.882 1466.12 149.227 1437.53 153.019C1427.95 154.29 1420.39 155.293 1416.87 155.967C1384.43 162.197 1349.95 168.668 1308.37 176.329C1267.97 183.746 1232.55 189.66 1200.08 194.41C1164.8 199.571 1132.15 204.037 1100.24 208.066C1086.34 209.815 1075.56 211.09 1065.29 212.205C1020.97 217.006 969.641 221.476 921.447 213.703C864.392 204.502 823.59 174.889 791.202 147.136C789.975 146.088 788.709 144.994 787.436 143.887C782.638 139.714 777.768 135.394 773.058 131.217C741.859 103.546 709.598 74.9332 666.883 59.7185C647.019 52.6426 625.935 48.7359 603.978 48.0456L603.98 48.0441Z"></path>
<path fill="url(#paint2_linear_610_114799)" d="M595.615 54.8277C557.203 53.6198 522.491 61.3202 496.519 69.8022C494.33 70.5176 492.026 71.2836 489.673 72.0814C461.595 81.597 435.618 93.6275 408.114 106.365C385.916 116.645 362.962 127.276 338.757 136.482C280.854 158.743 223.027 160.204 145.399 141.364L145.336 141.567C182.829 150.665 213.939 154.831 243.239 154.683C276.511 154.511 307.787 148.62 338.861 136.674C363.074 127.465 386.032 116.833 408.234 106.551C435.73 93.8174 461.701 81.7882 489.767 72.2767C492.118 71.4788 494.422 70.7128 496.609 69.9989C536.893 56.8423 598.245 45.567 661.757 66.5643C703.329 80.3079 734.743 106.788 765.124 132.397C770.018 136.523 775.079 140.789 780.069 144.902C781.307 145.921 782.553 146.942 783.774 147.931C805.007 165.202 823.413 177.664 841.696 187.152C864.313 198.89 887.185 206.29 911.616 209.773C955.495 216.031 1001.42 212.474 1045.83 209.035C1049.29 208.766 1052.74 208.5 1056.17 208.239C1067.73 207.355 1078.71 206.449 1090.86 205.442C1130.81 202.08 1160.1 199.419 1188.79 196.539C1222.26 193.18 1258.74 188.085 1297.21 181.398C1338.21 174.217 1373.91 167.487 1406.35 160.822C1410.29 160.012 1418.33 158.852 1428.51 157.385C1458.15 153.11 1502.96 146.646 1506.25 140.166L1506.03 140.079C1504.62 142.844 1494.86 145.991 1477.02 149.429C1461.67 152.387 1443.26 155.043 1428.46 157.178C1418.28 158.647 1410.24 159.806 1406.29 160.619C1373.85 167.282 1338.15 174.012 1297.15 181.192C1258.69 187.879 1222.22 192.973 1188.75 196.331C1160.06 199.21 1130.78 201.872 1090.82 205.232C1078.69 206.24 1067.7 207.146 1056.14 208.03C1052.71 208.291 1049.26 208.558 1045.8 208.825C1001.41 212.264 955.498 215.819 911.65 209.565C856.359 201.68 816.064 173.905 783.939 147.777C782.718 146.787 781.474 145.769 780.235 144.749C775.248 140.639 770.187 136.372 765.292 132.246C734.893 106.623 703.459 80.1263 661.839 66.366C639.206 58.8842 616.841 55.4945 595.611 54.8258L595.615 54.8277Z"></path>
<path fill="url(#paint3_linear_610_114799)" d="M586.077 61.5457C581.609 61.4058 577.119 61.3679 572.604 61.432C545.63 61.8194 518.405 65.8388 491.688 73.3818C489.53 73.9907 487.296 74.6328 484.856 75.3427C453.758 84.3999 424.845 96.7217 394.235 109.764C374.507 118.171 354.108 126.863 332.703 134.792C273.42 156.749 215.426 158.399 138.784 140.309L138.718 140.533C175.891 149.307 207.078 153.231 236.868 152.882C269.995 152.495 301.379 146.647 332.815 135.005C354.226 127.074 374.63 118.381 394.361 109.974C424.963 96.9338 453.87 84.6166 484.95 75.5631C487.389 74.8532 489.624 74.2111 491.78 73.6021C531.123 62.4954 591.674 53.4168 656.715 73.2371C697.199 85.5735 727.816 109.981 757.426 133.586C762.48 137.615 767.706 141.782 772.861 145.787C774.088 146.741 775.312 147.684 776.503 148.595C797.528 164.746 815.598 176.331 833.369 185.053C855.625 195.974 878.015 202.716 901.823 205.66C938.791 210.23 977.84 207.962 1015.6 205.767C1025.97 205.165 1036.68 204.541 1047.02 204.088C1057.25 203.632 1069.35 203.102 1081.43 202.629C1088.96 202.323 1096.5 202.025 1103.8 201.736C1128.84 200.746 1152.5 199.811 1177.45 198.481C1211.13 196.686 1247.65 192.58 1286 186.279C1326.45 179.562 1362.36 172.763 1395.78 165.491C1400.14 164.541 1408.97 163.164 1419.2 161.571C1448.11 157.065 1491.8 150.254 1495.9 143.661L1495.66 143.547C1491.62 150.043 1448 156.842 1419.14 161.342C1408.91 162.936 1400.08 164.313 1395.7 165.265C1362.29 172.534 1326.38 179.333 1285.93 186.049C1247.6 192.347 1211.1 196.451 1177.42 198.247C1152.47 199.577 1128.82 200.512 1103.78 201.502C1096.48 201.79 1088.94 202.089 1081.41 202.395C1069.33 202.868 1057.23 203.398 1046.99 203.854C1036.66 204.307 1025.94 204.929 1015.58 205.533C977.829 207.727 938.793 209.995 901.854 205.428C848.326 198.808 808.539 172.895 776.679 148.42C775.488 147.509 774.264 146.566 773.039 145.612C767.886 141.607 762.662 137.442 757.608 133.413C727.978 109.792 697.34 85.3676 656.801 73.0139C634.297 66.1561 610.564 62.3096 586.077 61.5408L586.077 61.5457Z"></path>
<path fill="url(#paint4_linear_610_114799)" d="M575.144 68.1209C572.605 68.0417 570.064 67.9891 567.515 67.966C540.138 67.7205 513.003 70.7464 486.86 76.9581C484.752 77.4584 482.522 77.9972 480.041 78.6007C445.435 87.0339 413.062 99.7581 378.788 113.228C362.033 119.814 344.707 126.623 326.645 133.098C266.124 154.8 207.961 156.639 132.165 139.25L132.093 139.496C149.994 143.604 166.377 146.537 182.18 148.467C199.078 150.532 214.89 151.4 230.519 151.123C263.527 150.539 295.008 144.719 326.764 133.332C344.83 126.854 362.157 120.043 378.915 113.457C413.178 99.9901 445.539 87.2702 480.126 78.8422C482.607 78.2388 484.836 77.7016 486.943 77.1995C540.88 64.3814 599.38 65.3404 651.668 79.9043C691.072 90.8794 720.921 113.254 749.79 134.893C754.982 138.786 760.35 142.809 765.648 146.667C766.851 147.544 768.055 148.414 769.229 149.254C790.336 164.479 807.551 174.868 825.046 182.938C846.939 193.035 868.849 199.12 892.029 201.541C923.809 204.859 957.608 203.231 990.292 201.658C1006.05 200.899 1022.34 200.115 1037.86 199.934C1049.49 199.789 1060.98 199.75 1072 199.816C1084.69 199.866 1097.21 199.997 1109.32 200.126C1127.73 200.32 1146.76 200.522 1166.11 200.423C1199.67 200.247 1236.23 197.132 1274.78 191.162C1314.13 184.98 1351.28 177.915 1385.2 170.162C1389.98 169.07 1399.1 167.54 1409.67 165.769C1439.62 160.749 1480.65 153.874 1485.55 147.156L1485.3 147.019C1480.46 153.645 1437.82 160.792 1409.6 165.521C1399.03 167.292 1389.91 168.822 1385.11 169.917C1351.2 177.669 1314.06 184.733 1274.72 190.913C1236.19 196.881 1199.65 199.995 1166.1 200.17C1146.76 200.269 1127.72 200.069 1109.32 199.874C1097.21 199.745 1084.69 199.613 1072 199.563C1060.97 199.497 1049.48 199.536 1037.85 199.681C1022.32 199.861 1006.03 200.647 990.27 201.406C957.598 202.979 923.814 204.605 892.06 201.291C840.435 195.901 802.606 173.004 769.418 149.063C768.246 148.223 767.042 147.353 765.839 146.476C760.543 142.62 755.177 138.595 749.984 134.704C721.094 113.048 691.221 90.6555 651.757 79.6647C627.185 72.8218 601.448 68.9446 575.144 68.1176L575.144 68.1209Z"></path>
<path fill="url(#paint5_linear_610_114799)" d="M561.944 74.4969C534.543 73.6363 507.481 75.6341 482.032 80.5396C480.046 80.9229 477.884 81.3427 475.228 81.8638C436.286 89.5026 399.553 102.885 360.662 117.053C347.738 121.761 334.373 126.63 320.591 131.411C259.599 152.572 199.446 154.666 125.547 138.199L125.472 138.466C161.629 146.523 193.913 150.091 224.172 149.373C257.042 148.594 288.622 142.802 320.716 131.667C334.5 126.884 347.865 122.016 360.791 117.306C399.668 103.143 436.389 89.7654 475.305 82.1316C477.962 81.6104 480.123 81.1906 482.11 80.8073C533.853 70.8357 592.28 72.8863 646.628 86.5821C684.957 96.2412 714.067 116.617 742.217 136.322C747.526 140.039 753.018 143.883 758.44 147.557C759.588 148.335 760.74 149.106 761.889 149.877L761.958 149.924C795.073 172.11 832.564 193.221 882.235 197.432C909.948 199.782 939.559 198.469 968.192 197.2C988.309 196.308 1009.11 195.385 1028.7 195.789C1040.1 196.013 1051.18 196.412 1062.57 197.011C1077.07 197.735 1091.22 198.641 1104.91 199.517C1121.03 200.55 1137.71 201.618 1154.76 202.371C1188.08 203.839 1224.69 201.713 1263.56 196.052C1302.41 190.296 1339.78 183.159 1374.62 174.841C1379.79 173.605 1389.13 171.93 1399.95 169.99C1429.29 164.726 1469.49 157.515 1475.2 150.66L1474.94 150.497C1469.3 157.266 1429.17 164.464 1399.87 169.72C1389.06 171.661 1379.71 173.337 1374.53 174.574C1339.69 182.889 1302.34 190.024 1263.5 195.779C1224.65 201.438 1188.06 203.565 1154.77 202.096C1137.72 201.345 1121.05 200.276 1104.93 199.242C1091.24 198.365 1077.08 197.459 1062.59 196.735C1051.19 196.137 1040.11 195.738 1028.7 195.513C1009.1 195.109 988.293 196.032 968.17 196.924C939.548 198.193 909.951 199.505 882.262 197.158C832.672 192.954 795.231 171.868 762.155 149.708L762.086 149.662C760.936 148.891 759.784 148.119 758.639 147.342C753.219 143.67 747.728 139.827 742.419 136.11C714.243 116.387 685.109 95.9925 646.715 86.3172C619.043 79.3448 590.314 75.3873 561.947 74.4954L561.944 74.4969Z"></path>
<path fill="url(#paint6_linear_610_114799)" d="M545.732 80.5406C521.517 79.7787 498.516 80.9775 477.205 84.1179C474.929 84.4529 472.666 84.7888 470.413 85.1237C450.188 88.1298 429.509 92.8132 405.339 99.8626C383.777 106.152 362.088 113.549 339.127 121.38C331.149 124.102 322.901 126.915 314.534 129.721C252.207 150.634 191.88 152.924 118.928 137.144L118.85 137.432C154.754 145.198 187.129 148.53 217.825 147.621C250.534 146.652 282.212 140.888 314.666 129.998C323.033 127.19 331.283 124.377 339.261 121.657C385.936 105.739 426.246 91.9904 470.481 85.4176C472.734 85.0827 474.997 84.7467 477.271 84.4116C525.999 77.23 584.355 80.3723 641.585 93.2565C678.843 101.645 707.234 120.051 734.691 137.851C740.105 141.361 745.702 144.988 751.23 148.446C752.189 149.045 753.15 149.641 754.111 150.235L754.686 150.591C768.731 159.286 787.533 170.334 808.444 178.666C829.629 187.108 850.562 191.902 872.438 193.319C896.837 194.899 922.982 193.728 948.269 192.594C972.041 191.529 996.623 190.427 1019.53 191.637C1030.76 192.218 1041.75 193.056 1053.14 194.198C1068.32 195.675 1083.01 197.445 1097.21 199.157C1112.12 200.954 1127.53 202.811 1143.41 204.312C1176.41 207.433 1213.06 206.297 1252.34 200.935C1290.74 195.584 1328.32 188.376 1364.04 179.511C1369.58 178.134 1379.06 176.321 1390.04 174.222C1418.86 168.71 1458.33 161.161 1464.84 154.158L1464.57 153.968C1458.13 160.893 1418.72 168.43 1389.95 173.933C1378.97 176.033 1369.49 177.847 1363.93 179.225C1328.23 188.087 1290.66 195.292 1252.28 200.641C1213.03 205.999 1176.41 207.136 1143.44 204.017C1127.57 202.516 1112.15 200.659 1097.25 198.862C1083.04 197.15 1068.36 195.381 1053.17 193.903C1041.78 192.76 1030.78 191.922 1019.54 191.34C996.616 190.129 972.023 191.23 948.24 192.296C922.966 193.429 896.831 194.601 872.455 193.021C824.704 189.927 787.728 170.682 754.882 150.349L754.307 149.993C753.346 149.399 752.385 148.805 751.429 148.206C745.904 144.75 740.307 141.122 734.895 137.614C707.41 119.796 678.99 101.371 641.663 92.9677C613.452 86.6169 585.065 82.6059 557.284 81.0456C553.404 80.8273 549.549 80.6593 545.728 80.5387L545.732 80.5406Z"></path>
<path fill="url(#paint7_linear_610_114799)" d="M525.719 86.1038C506.603 85.5035 488.743 86.0343 472.38 87.6978L471.613 87.7755C469.6 87.9798 467.596 88.183 465.602 88.3853C414.84 93.5197 367.765 108.794 313.258 126.481L308.476 128.031C244.748 148.698 184.248 151.182 112.307 136.088L112.225 136.399C184.243 151.51 244.812 149.02 308.614 128.33L313.395 126.779C367.879 109.101 414.933 93.8321 465.653 88.703C467.647 88.5008 469.65 88.2975 471.664 88.0932L472.431 88.0156C517.347 83.4504 574.095 87.5722 636.543 99.9308C672.731 107.094 700.425 123.553 727.207 139.471C732.711 142.741 738.401 146.125 744.023 149.335C744.846 149.806 745.673 150.272 746.498 150.74L747.415 151.258C762.229 159.647 780.079 169.207 800.142 176.52C820.972 184.114 841.418 188.263 862.645 189.207C884.25 190.166 907.443 189.042 929.872 187.956C956.806 186.65 984.658 185.3 1010.37 187.488C1021.51 188.423 1032.41 189.699 1043.7 191.388C1059.1 193.639 1073.86 196.293 1088.12 198.86C1102.27 201.405 1116.89 204.037 1132.06 206.255C1164.71 211.032 1201.41 210.885 1241.13 205.819C1279.1 200.857 1316.9 193.577 1353.46 184.182C1359.35 182.668 1368.9 180.726 1379.95 178.481C1408.32 172.716 1447.16 164.821 1454.48 157.653L1454.2 157.44C1446.96 164.533 1408.18 172.414 1379.86 178.168C1368.8 180.417 1359.25 182.358 1353.34 183.875C1316.8 193.266 1279.02 200.542 1241.07 205.502C1201.39 210.562 1164.73 210.709 1132.12 205.938C1116.96 203.719 1102.33 201.089 1088.19 198.543C1073.92 195.976 1059.17 193.322 1043.76 191.069C1032.46 189.379 1021.54 188.101 1010.4 187.166C984.659 184.975 956.794 186.326 929.843 187.631C907.424 188.718 884.243 189.844 862.658 188.884C814.479 186.742 778.014 168.201 747.617 150.989L746.7 150.47C745.875 150.004 745.05 149.536 744.227 149.066C738.609 145.858 732.919 142.476 727.416 139.206C700.605 123.271 672.879 106.792 636.621 99.6152C606.983 93.748 578.563 89.7031 552.152 87.5899C543.104 86.866 534.287 86.3702 525.72 86.1005L525.719 86.1038Z"></path>
<path fill="url(#paint8_linear_610_114799)" d="M502.016 90.9605C489.714 90.5745 478.279 90.6811 467.557 91.278C465.286 91.4043 463.034 91.527 460.793 91.6472C436.31 92.9631 411.737 96.6699 383.459 103.312C358.541 109.165 333.043 116.751 302.422 126.343C237.227 146.765 176.551 149.446 105.69 135.035L105.606 135.367C131.067 140.544 155.223 143.519 178.737 144.257C220.742 145.577 260.72 139.771 302.566 126.662C357.739 109.379 407.729 94.8414 460.827 91.9871C463.067 91.867 465.321 91.7428 467.593 91.6164C518.024 88.8112 578.751 97.6179 631.505 106.604C666.623 112.585 693.637 127.12 719.76 141.176C725.343 144.181 731.118 147.287 736.821 150.222C737.538 150.592 738.258 150.958 738.977 151.325L740.15 151.924C754.883 159.456 772.546 168.012 791.847 174.36C812.327 181.094 832.283 184.607 852.857 185.092C872.034 185.546 892.635 184.422 912.557 183.334C942.306 181.71 973.066 180.031 1001.21 183.337C1012.02 184.591 1022.84 186.306 1034.27 188.575C1049.49 191.595 1063.95 195.093 1077.93 198.475C1091.67 201.8 1105.87 205.237 1120.72 208.197C1152.99 214.63 1189.73 215.473 1229.91 210.705C1266.98 206.182 1306.05 198.627 1342.88 188.854C1349.09 187.208 1358.63 185.153 1369.69 182.771C1399.22 176.412 1435.98 168.496 1444.13 161.151L1443.84 160.913C1435.77 168.189 1397.51 176.426 1369.58 182.441C1358.52 184.822 1348.97 186.879 1342.75 188.528C1305.94 198.295 1266.89 205.847 1229.85 210.366C1189.71 215.129 1153.02 214.287 1120.8 207.864C1105.96 204.907 1091.76 201.47 1078.02 198.147C1064.04 194.764 1049.58 191.265 1034.35 188.243C1022.9 185.971 1012.08 184.256 1001.25 182.998C973.069 179.689 942.287 181.369 912.52 182.994C892.606 184.08 872.014 185.204 852.855 184.751C852.328 184.738 851.8 184.724 851.276 184.708C805.846 183.28 770.218 166.907 740.344 151.633L739.169 151.034C738.45 150.667 737.731 150.301 737.015 149.931C731.316 146.997 725.542 143.892 719.961 140.889C693.806 126.816 666.76 112.264 631.569 106.271C596.9 100.365 570.815 96.6261 546.998 94.1446C530.762 92.4535 515.839 91.3941 502.012 90.9602L502.016 90.9605Z"></path>
<path fill="url(#paint9_linear_610_114799)" d="M477.519 95.0353C472.5 94.8774 467.568 94.8142 462.736 94.8582C460.466 94.8793 458.217 94.8952 455.986 94.9107C431.235 95.0664 405.794 97.8176 378.21 103.32C355.264 107.898 330.024 114.477 296.368 124.653C252.924 137.789 211.964 143.594 169.445 142.258C146.645 141.541 123.403 138.773 99.0703 133.981L98.9835 134.335C134.134 141.258 166.783 143.89 198.795 142.381C230.852 140.871 262.818 135.185 296.514 124.995C356.395 106.889 403.963 95.6022 455.996 95.2725C458.229 95.2588 460.478 95.2412 462.748 95.2218C502.691 94.8567 549.546 101.859 594.859 108.631C605.232 110.182 615.959 111.785 626.463 113.28C660.505 118.124 686.849 130.751 712.328 142.962C717.988 145.674 723.838 148.479 729.617 151.114C730.256 151.407 730.899 151.697 731.541 151.987C731.987 152.19 732.436 152.391 732.885 152.596C748.296 159.598 765.103 166.818 783.553 172.194C803.682 178.059 823.149 180.934 843.065 180.982C860.074 181.023 877.528 179.929 896.005 178.771C928.319 176.744 961.732 174.65 992.047 179.188C1002.85 180.789 1013.57 182.941 1024.84 185.765C1039.95 189.552 1054.17 193.929 1067.92 198.161C1081.19 202.246 1094.91 206.471 1109.37 210.139C1141.25 218.229 1178.04 220.064 1218.7 215.591C1255.43 211.424 1294.72 203.796 1332.31 193.528C1338.78 191.758 1348.26 189.603 1359.22 187.109C1388.43 180.464 1424.78 172.193 1433.78 164.652L1433.48 164.389C1424.56 171.865 1388.27 180.122 1359.11 186.757C1348.14 189.254 1338.66 191.409 1332.17 193.181C1294.61 203.442 1255.35 211.066 1218.64 215.229C1178.04 219.694 1141.31 217.865 1109.48 209.79C1095.04 206.126 1081.32 201.903 1068.05 197.818C1054.3 193.584 1040.08 189.205 1024.95 185.415C1013.67 182.588 1002.93 180.434 992.115 178.83C961.747 174.283 928.309 176.379 895.97 178.407C877.5 179.565 860.054 180.659 843.061 180.617C798.905 180.509 764.519 166.557 733.081 152.275C732.632 152.072 732.183 151.869 731.736 151.666C731.096 151.376 730.454 151.087 729.814 150.795C724.04 148.16 718.189 145.355 712.533 142.645C687.022 130.418 660.644 117.776 626.529 112.922C616.027 111.427 605.302 109.824 594.928 108.273C555.076 102.318 514.029 96.1827 477.523 95.0355L477.519 95.0353Z"></path>
<path fill="url(#paint10_linear_610_114799)" d="M447.825 98.049C423.619 97.2877 399.092 99.0185 372.959 103.323C348.95 107.278 322.688 113.518 290.312 122.961C221.943 142.901 160.922 145.975 92.4513 132.925L92.363 133.3C160.919 146.366 222.016 143.289 290.464 123.326C355.764 104.281 401.671 96.9825 447.676 98.4299C448.841 98.4665 450 98.5077 451.166 98.5562C453.39 98.6472 455.637 98.7381 457.904 98.8221C487.442 99.9349 520.009 105.032 554.487 110.43C576.41 113.861 599.081 117.409 621.424 119.952C654.381 123.704 680.062 134.436 704.899 144.815C710.632 147.21 716.562 149.688 722.415 152.003C722.987 152.23 723.561 152.455 724.135 152.68C724.63 152.874 725.126 153.067 725.62 153.263C739.96 158.928 756.806 165.36 775.261 170.011C795.045 174.996 814.021 177.239 833.272 176.867C848.291 176.577 863.684 175.461 879.98 174.277C914.688 171.759 950.577 169.154 982.882 175.036C993.671 176.984 1004.31 179.573 1015.4 182.949C1030.33 187.495 1044.24 192.744 1057.69 197.821C1070.57 202.679 1083.88 207.704 1098.01 212.079C1129.5 221.824 1166.33 224.65 1207.48 220.476C1243.91 216.655 1283.41 208.951 1321.73 198.2C1328.42 196.32 1337.74 194.086 1348.53 191.498C1377.5 184.552 1413.54 175.907 1423.42 168.149L1423.11 167.864C1413.32 175.562 1377.32 184.192 1348.4 191.128C1337.61 193.717 1328.29 195.953 1321.58 197.836C1283.29 208.58 1243.82 216.278 1207.42 220.096C1166.34 224.263 1129.58 221.445 1098.16 211.719C1084.04 207.348 1070.73 202.328 1057.86 197.472C1044.4 192.392 1030.49 187.141 1015.54 182.59C1004.43 179.206 993.773 176.613 982.964 174.662C950.594 168.769 914.671 171.376 879.932 173.896C863.644 175.078 848.258 176.195 833.252 176.484C791.21 177.294 757.118 165.286 725.8 152.916C725.306 152.722 724.81 152.527 724.313 152.333C723.739 152.108 723.167 151.883 722.595 151.656C716.746 149.342 710.82 146.866 705.089 144.472C680.22 134.079 654.504 123.333 621.473 119.573C599.142 117.032 576.477 113.484 554.558 110.053C520.064 104.655 487.483 99.5549 457.915 98.44C455.646 98.3542 453.401 98.2634 451.177 98.1724C450.061 98.1275 448.941 98.0856 447.823 98.0505L447.825 98.049Z"></path>
<path fill="url(#paint11_linear_610_114799)" d="M426.828 100.263C407.509 99.6556 388.009 100.67 367.71 103.322C342.732 106.585 316.213 112.288 284.257 121.271C214.173 140.973 152.977 144.242 85.8319 131.869L85.7421 132.266C152.974 144.654 214.247 141.381 284.414 121.656C349.15 103.457 397.576 97.5301 446.336 101.837C448.444 102.023 450.719 102.223 453.062 102.421C476.191 104.384 501.32 108.869 527.923 113.62C556.78 118.772 586.622 124.1 616.388 126.624C648.248 129.326 673.266 138.177 697.459 146.735C703.273 148.792 709.283 150.918 715.219 152.893C715.734 153.063 716.249 153.234 716.767 153.404C717.298 153.579 717.831 153.754 718.361 153.931C733.411 158.946 749.561 164.15 766.973 167.816C786.421 171.911 804.905 173.526 823.483 172.752C836.627 172.205 850.071 171.076 864.304 169.88C901.296 166.771 939.547 163.556 973.717 170.882C984.5 173.178 995.047 176.205 1005.96 180.133C1020.67 185.428 1034.23 191.543 1047.35 197.456C1059.86 203.097 1072.8 208.93 1086.66 214.013C1117.9 225.471 1154.77 229.287 1196.26 225.356C1232.08 221.962 1271.81 214.185 1311.15 202.867C1318 200.898 1327.51 198.498 1337.58 195.957C1366.4 188.689 1402.27 179.644 1413.06 171.641L1412.75 171.332C1402.03 179.278 1366.22 188.31 1337.44 195.568C1327.36 198.11 1317.85 200.509 1310.99 202.482C1271.68 213.792 1231.99 221.561 1196.2 224.952C1154.79 228.875 1118 225.069 1086.84 213.639C1073 208.562 1060.07 202.733 1047.56 197.096C1034.44 191.179 1020.86 185.06 1006.13 179.757C995.198 175.819 984.628 172.787 973.82 170.486C961.555 167.856 948.764 166.582 935.708 166.171C912.301 165.434 888.016 167.476 864.246 169.473C850.019 170.668 836.583 171.797 823.449 172.344C783.604 174.001 751.081 164.4 718.522 153.549C717.99 153.372 717.457 153.197 716.926 153.022C716.41 152.853 715.895 152.682 715.38 152.511C709.45 150.539 703.441 148.414 697.629 146.358C673.402 137.787 648.351 128.925 616.422 126.217C586.681 123.694 556.853 118.369 528.007 113.22C501.389 108.468 476.248 103.98 453.094 102.015C450.753 101.818 448.478 101.616 446.37 101.431C439.86 100.857 433.352 100.466 426.824 100.261L426.828 100.263Z"></path>
<path fill="url(#paint12_linear_610_114799)" d="M406.975 101.805C392.322 101.345 377.574 101.85 362.463 103.318C337.093 105.781 309.531 111.101 278.203 119.581C206.304 139.046 144.932 142.51 79.2127 130.814L79.1214 131.233C113.524 137.355 146.45 139.293 179.776 137.156C210.792 135.167 243.04 129.551 278.363 119.988C342.166 102.715 390.956 98.267 441.502 105.12L441.702 105.147C443.845 105.438 446.016 105.731 448.214 106.023C466.982 108.51 487.125 112.716 508.453 117.171C541.865 124.151 576.415 131.367 611.352 133.297C642.09 134.995 666.43 141.975 689.972 148.725C695.883 150.42 701.996 152.173 708.026 153.782C708.496 153.908 708.966 154.032 709.436 154.157C709.992 154.304 710.55 154.451 711.106 154.601C724.507 158.203 741.187 162.688 758.687 165.61C777.807 168.801 795.801 169.793 813.696 168.639C825.029 167.909 836.582 166.787 848.817 165.599C888.034 161.792 928.586 157.856 964.553 166.73C975.334 169.373 985.79 172.837 996.525 177.317C1010.99 183.355 1024.18 190.33 1036.94 197.075C1049.12 203.508 1061.7 210.159 1075.31 215.954C1091.08 222.667 1108.65 227.246 1127.52 229.563C1145.29 231.744 1164.64 231.973 1185.05 230.245C1220.95 227.081 1260.89 219.232 1300.57 207.543C1307.48 205.509 1316.63 203.089 1326.31 200.526C1355.1 192.905 1390.94 183.423 1402.71 175.142L1402.39 174.809C1390.69 183.038 1354.9 192.507 1326.15 200.118C1316.46 202.681 1307.32 205.101 1300.4 207.139C1260.76 218.816 1220.85 226.659 1184.99 229.819C1142.93 233.381 1106.1 228.587 1075.52 215.573C1061.93 209.787 1049.36 203.14 1037.19 196.713C1024.42 189.962 1011.22 182.983 996.73 176.935C985.972 172.443 975.486 168.971 964.677 166.32C948.535 162.339 929.897 160.598 907.701 161.001C888.074 161.357 868.08 163.297 848.746 165.174C836.517 166.361 824.968 167.482 813.645 168.213C773.112 170.827 740.243 161.99 711.243 154.194C710.685 154.044 710.127 153.897 709.569 153.75C709.099 153.625 708.629 153.501 708.161 153.377C702.137 151.769 696.026 150.017 690.119 148.324C666.548 141.565 642.173 134.577 611.372 132.874C576.479 130.947 541.95 123.733 508.559 116.759C487.222 112.302 467.067 108.093 448.278 105.603C446.08 105.311 443.911 105.017 441.768 104.727L441.568 104.7C430.015 103.133 418.523 102.17 406.973 101.807L406.975 101.805Z"></path>
<path fill="url(#paint13_linear_610_114799)" d="M388.524 102.775C378.168 102.45 367.767 102.627 357.219 103.305C331.257 104.97 303.432 109.741 272.149 117.891C197.328 137.381 137.647 140.931 72.5912 129.761L72.4984 130.202C106.653 136.067 139.669 137.773 173.436 135.421C203.971 133.292 236.313 127.699 272.308 118.323C335.505 101.86 384.659 98.8938 436.666 108.405L438.047 108.657C439.8 108.978 441.572 109.302 443.366 109.626C459.002 112.45 475.615 116.512 493.203 120.815C511.101 125.193 529.608 129.72 548.584 133.298C570.102 137.357 588.991 139.538 606.316 139.975C635.883 140.715 659.519 145.837 682.375 150.79C688.42 152.1 694.671 153.454 700.833 154.677C701.251 154.761 701.67 154.841 702.088 154.924C702.675 155.039 703.263 155.155 703.852 155.272L705.772 155.66C720.277 158.59 735.276 161.62 751.481 163.525C769.872 165.687 787.022 166.015 803.907 164.528C813.441 163.688 823.124 162.606 833.374 161.461C874.804 156.834 917.642 152.049 955.385 162.58C966.161 165.573 976.53 169.472 987.081 174.503C1001.28 181.275 1014.1 189.104 1026.49 196.674C1038.33 203.907 1050.57 211.387 1063.96 217.893C1079.56 225.477 1097.07 230.745 1116.02 233.548C1133.76 236.176 1153.22 236.709 1173.83 235.131C1192.26 233.659 1211.81 230.864 1231.96 226.821C1250.91 223.018 1270.44 218.103 1290 212.216C1296.83 210.158 1305.46 207.767 1314.6 205.234C1343.52 197.219 1379.52 187.247 1392.35 178.639L1392.02 178.282C1379.26 186.843 1343.31 196.802 1314.43 204.806C1305.29 207.339 1296.65 209.731 1289.81 211.79C1249.52 223.92 1209.4 231.835 1173.77 234.68C1131.22 237.935 1094.36 232.155 1064.21 217.499C1050.85 211.006 1038.62 203.532 1026.79 196.307C1014.39 188.729 1001.56 180.893 987.329 174.109C976.747 169.062 966.347 165.151 955.538 162.15C938.605 157.425 918.941 155.388 895.426 155.919C874.678 156.39 853.641 158.739 833.298 161.011C823.05 162.156 813.37 163.237 803.844 164.077C766.154 167.395 734.134 160.926 705.883 155.22L703.963 154.832C703.373 154.713 702.784 154.597 702.196 154.481C701.778 154.399 701.362 154.317 700.944 154.235C694.787 153.013 688.538 151.659 682.495 150.349C660.088 145.494 636.932 140.478 608.166 139.572C607.552 139.553 606.94 139.535 606.322 139.521C567.629 138.543 528.163 128.897 493.339 120.378C475.741 116.073 459.118 112.008 443.465 109.182C441.673 108.858 439.901 108.534 438.148 108.213L436.767 107.959C420.588 105 404.614 103.278 388.522 102.772L388.524 102.775Z"></path>
<path fill="url(#paint14_linear_610_114799)" d="M371.538 103.283C365.046 103.079 358.537 103.083 351.982 103.291C325.52 104.131 297.426 108.355 266.095 116.201C211.889 129.775 166.143 135.638 121.67 134.241C103.057 133.657 84.673 131.8 65.9723 128.705L65.8799 129.169C99.7868 134.779 132.896 136.256 167.102 133.685C197.48 131.4 228.987 125.988 266.261 116.654C329.08 100.922 378.598 99.4367 431.835 111.684C432.677 111.877 433.522 112.072 434.374 112.269C435.742 112.586 437.124 112.905 438.518 113.223C451.825 116.269 465.847 120.254 480.692 124.472C517.675 134.98 559.594 146.887 601.283 146.647C629.592 146.481 652.447 149.759 674.552 152.929C680.807 153.825 687.275 154.753 693.646 155.564C694.025 155.611 694.406 155.659 694.788 155.707C695.392 155.782 695.996 155.859 696.601 155.939C698.571 156.198 700.555 156.463 702.551 156.731C729.172 160.288 759.344 164.318 794.118 160.411C801.826 159.545 809.61 158.547 817.852 157.492C859.488 152.158 906.682 146.113 946.217 158.425C956.99 161.765 967.268 166.102 977.639 171.683C991.575 179.184 1004 187.859 1016.01 196.249C1027.52 204.292 1039.43 212.608 1052.6 219.827C1068.02 228.285 1085.49 234.243 1104.5 237.536C1122.23 240.607 1141.78 241.441 1162.61 240.016C1181.03 238.696 1200.7 235.939 1221.05 231.824C1240.01 227.991 1259.65 222.966 1279.41 216.889C1285.98 214.87 1293.9 212.578 1302.28 210.152C1331.55 201.682 1367.96 191.142 1381.99 182.138L1381.66 181.759C1367.7 190.719 1331.32 201.245 1302.1 209.704C1293.71 212.132 1285.79 214.423 1279.22 216.444C1238.31 229.02 1197.96 237.008 1162.55 239.546C1119.5 242.492 1082.61 235.725 1052.88 219.433C1039.74 212.229 1027.85 203.922 1016.35 195.888C1004.32 187.489 991.888 178.804 977.92 171.288C967.515 165.688 957.201 161.336 946.389 157.984C928.66 152.462 907.947 150.125 883.066 150.839C861.168 151.467 839.098 154.294 817.753 157.028C809.515 158.083 801.731 159.081 794.029 159.945C759.334 163.844 729.204 159.818 702.618 156.266C700.62 156 698.636 155.735 696.667 155.474C696.061 155.394 695.455 155.319 694.849 155.242C694.469 155.194 694.088 155.148 693.709 155.098C687.342 154.288 680.876 153.36 674.625 152.464C656.014 149.796 636.866 147.05 614.379 146.342C610.129 146.208 605.765 146.147 601.258 146.174C559.66 146.418 517.789 134.52 480.845 124.025C465.993 119.804 451.961 115.819 438.639 112.768C437.246 112.448 435.863 112.129 434.495 111.815C433.643 111.617 432.796 111.422 431.954 111.229C411.587 106.544 391.657 103.917 371.526 103.284L371.538 103.283Z"></path>
<path fill="url(#paint15_linear_610_114799)" d="M355.937 103.414C352.878 103.317 349.819 103.269 346.748 103.27C319.852 103.27 291.489 106.947 260.041 114.509C201.433 128.604 136.555 139.95 59.3511 127.648L59.2572 128.133C92.9156 133.496 126.119 134.744 160.762 131.949C190.435 129.553 222.034 124.163 260.205 114.984C294.659 106.699 325.9 103.029 356.072 103.976C380.026 104.729 403.3 108.39 426.997 114.962C428.189 115.293 429.392 115.628 430.605 115.965C431.618 116.247 432.64 116.533 433.668 116.82C445.203 120.025 457.277 123.966 470.059 128.138C508.586 140.712 552.253 154.966 596.249 153.317C623.081 152.311 644.999 153.774 666.197 155.191C673.144 155.655 679.706 156.093 686.463 156.452C686.803 156.471 687.146 156.488 687.488 156.506C688.109 156.539 688.732 156.57 689.356 156.606C692.824 156.809 696.257 157.03 699.89 157.262C724.658 158.846 752.729 160.642 784.331 156.296C790.131 155.5 795.946 154.647 802.104 153.745C845.951 147.321 895.649 140.039 937.049 154.271C947.912 157.991 958.101 162.764 968.198 168.864C981.928 177.093 993.987 186.646 1005.65 195.886C1016.8 204.72 1028.32 213.854 1041.24 221.762C1056.49 231.093 1073.9 237.742 1092.98 241.525C1110.7 245.036 1130.35 246.172 1151.39 244.898C1169.83 243.728 1189.6 241.01 1210.15 236.822C1229.11 232.958 1248.85 227.822 1268.84 221.558C1274.86 219.673 1281.77 217.589 1289.08 215.382C1318.99 206.362 1356.22 195.137 1371.64 185.632L1371.29 185.229C1355.94 194.693 1318.76 205.906 1288.88 214.915C1281.56 217.122 1274.65 219.206 1268.63 221.093C1226.52 234.293 1187.06 242.136 1151.34 244.403C1107.79 247.038 1070.86 239.285 1041.57 221.358C1028.68 213.469 1017.17 204.346 1006.03 195.523C994.357 186.272 982.283 176.706 968.521 168.458C958.386 162.335 948.157 157.545 937.251 153.81C895.698 139.526 845.915 146.821 801.993 153.254C795.837 154.157 790.022 155.008 784.226 155.806C752.691 160.143 724.653 158.349 699.919 156.767C696.283 156.534 692.848 156.315 689.38 156.111C688.756 156.075 688.131 156.042 687.509 156.011C687.166 155.993 686.826 155.976 686.485 155.957C679.732 155.6 673.172 155.161 666.227 154.697C645.013 153.28 623.076 151.814 596.211 152.822C552.333 154.467 508.726 140.234 470.253 127.676C457.463 123.502 445.383 119.559 433.833 116.35C432.805 116.063 431.783 115.779 430.77 115.497C429.557 115.158 428.354 114.823 427.162 114.492C403.04 107.802 379.644 104.157 355.935 103.412L355.937 103.414Z"></path>
<path fill="url(#paint16_linear_610_114799)" d="M341.569 103.25C341.553 103.249 341.538 103.248 341.522 103.249C314.234 102.396 285.601 105.526 253.988 112.82C184.242 128.911 123.325 137.411 52.7317 126.595L52.6382 127.102C86.0479 132.22 119.345 133.241 154.427 130.218C183.634 127.702 214.391 122.49 254.155 113.316C315.933 99.0642 367.748 100.583 422.161 118.242C423.706 118.743 425.27 119.257 426.853 119.775L428.819 120.418C438.986 123.745 449.569 127.669 460.773 131.824C500.43 146.531 545.376 163.199 591.219 159.99C615.873 158.263 636.332 157.993 656.117 157.731C664.065 157.626 671.57 157.527 679.285 157.338L680.165 157.317C680.814 157.3 681.463 157.284 682.115 157.272C687.331 157.179 692.556 157.146 698.089 157.108C720.727 156.957 746.382 156.789 774.548 152.18C778.3 151.567 782.03 150.943 785.977 150.281C832.153 142.553 884.491 133.793 927.884 150.115C938.729 154.181 948.829 159.39 958.76 166.042C972.208 174.987 983.862 185.375 995.13 195.423C1005.96 205.081 1017.16 215.065 1029.89 223.695C1044.95 233.902 1062.3 241.245 1081.46 245.517C1099.17 249.468 1118.93 250.903 1140.18 249.783C1158.62 248.759 1178.5 246.08 1199.25 241.819C1218.21 237.926 1238.06 232.681 1258.26 226.231C1263.23 224.644 1268.67 222.942 1274.42 221.141C1305.48 211.415 1344.14 199.312 1361.28 189.129L1360.93 188.704C1343.86 198.849 1305.23 210.941 1274.2 220.657C1268.45 222.458 1263.02 224.159 1258.04 225.748C1215.34 239.385 1175.66 247.298 1140.12 249.269C1096.07 251.59 1059.11 242.851 1030.26 223.293C1017.56 214.687 1006.37 204.714 995.556 195.071C984.272 185.011 972.603 174.608 959.12 165.641C949.148 158.962 939.004 153.73 928.111 149.646C908.677 142.336 885.671 139.409 857.783 140.696C833.395 141.821 809.222 145.866 785.847 149.779C781.9 150.439 778.173 151.064 774.421 151.677C746.308 156.275 720.68 156.444 698.069 156.595C692.535 156.633 687.307 156.666 682.087 156.759C681.434 156.771 680.783 156.788 680.132 156.803L679.253 156.825C671.543 157.013 664.038 157.113 656.093 157.218C636.299 157.481 615.828 157.75 591.155 159.478C545.463 162.677 500.589 146.035 460.998 131.353C449.787 127.196 439.198 123.268 429.019 119.939L427.054 119.296C425.471 118.777 423.905 118.263 422.36 117.763C394.874 108.844 368.445 104.097 341.565 103.252L341.569 103.25Z"></path>
<path fill="url(#paint17_linear_610_114799)" d="M328.201 102.848C303.006 102.055 276.657 104.781 247.932 111.129C173.978 127.476 114.419 135.59 46.1085 125.54L46.0155 126.068C79.178 130.947 112.567 131.738 148.09 128.488C183.924 125.209 218.756 118.135 248.101 111.649C309.97 97.9737 362.161 101.018 417.324 121.52C419.269 122.244 421.203 122.972 423.251 123.745L423.965 124.014C433.061 127.443 442.49 131.374 452.47 135.537C492.962 152.423 538.856 171.562 586.187 166.663C602.959 164.928 617.662 163.533 631.881 162.183C645.763 160.866 658.874 159.623 672.108 158.225L672.889 158.144C673.55 158.074 674.211 158.002 674.875 157.939C682.182 157.226 689.612 156.65 697.477 156.041C718.578 154.406 740.396 152.716 764.763 148.071C766.257 147.785 767.76 147.498 769.272 147.209C815.543 138.359 873.131 127.344 918.714 145.966C929.543 150.378 939.553 156.024 949.319 163.227C962.488 172.885 973.733 184.102 984.608 194.95C995.121 205.437 1005.99 216.279 1018.54 225.632C1033.4 236.716 1050.69 244.751 1069.92 249.515C1087.64 253.902 1107.5 255.637 1128.96 254.672C1164.4 252.989 1204.34 244.993 1247.69 230.906C1250.69 229.93 1253.84 228.914 1257.08 227.864C1288.46 217.718 1331.43 203.822 1350.93 192.63L1350.57 192.181C1331.13 203.338 1288.2 217.222 1256.85 227.36C1253.6 228.409 1250.46 229.426 1247.45 230.402C1204.17 244.471 1164.29 252.455 1128.91 254.135C1084.35 256.139 1047.36 246.412 1018.94 225.23C1006.43 215.903 995.577 205.075 985.079 194.604C974.188 183.741 962.926 172.507 949.72 162.823C939.911 155.587 929.854 149.915 918.974 145.482C898.579 137.15 874.257 133.941 844.617 135.673C818.811 137.181 792.414 142.23 769.125 146.684C767.613 146.973 766.109 147.26 764.615 147.546C740.288 152.184 718.49 153.873 697.408 155.505C689.538 156.114 682.106 156.691 674.791 157.405C674.124 157.47 673.461 157.541 672.799 157.611L672.02 157.693C658.788 159.088 645.678 160.334 631.8 161.65C617.58 162.999 602.876 164.395 586.101 166.131C538.952 171.011 493.149 151.909 452.736 135.056C442.749 130.891 433.317 126.957 424.208 123.525L423.494 123.255C421.444 122.482 419.508 121.752 417.562 121.028C389.827 110.72 363.245 104.896 336.3 103.226C333.613 103.059 330.913 102.932 328.201 102.848Z"></path>
<path fill="url(#paint18_linear_610_114799)" d="M315.677 102.251C292.385 101.519 268.093 103.893 241.88 109.438C176.723 123.22 112.214 134.743 39.4895 124.484L39.397 125.035C56.7983 127.49 73.8712 128.784 91.5928 128.994C107.843 129.185 124.251 128.454 141.756 126.759C175.75 123.467 210.049 116.75 242.05 109.979C304.112 96.8505 356.677 101.422 412.488 124.797C414.692 125.721 416.972 126.691 419.118 127.608C427.36 131.128 435.873 135.084 444.886 139.272C465.649 148.919 487.12 158.895 510.03 165.888C536.239 173.887 559.506 176.322 581.159 173.332C613.924 168.809 639.856 163.875 664.936 159.103L665.544 158.988C666.242 158.855 666.94 158.721 667.64 158.594C677.604 156.785 687.925 155.262 698.85 153.651C716.639 151.028 735.034 148.315 754.98 143.948C799.941 134.105 861.515 120.625 909.546 141.803C920.361 146.561 930.282 152.644 939.877 160.398C952.767 170.764 963.606 182.804 974.088 194.447C984.28 205.77 994.818 217.475 1007.18 227.556C1021.85 239.516 1039.08 248.246 1058.39 253.501C1076.1 258.323 1096.07 260.358 1117.74 259.549C1153.04 258.154 1193.2 250.086 1237.11 235.57C1267.09 225.659 1317.27 209.071 1340.57 196.119L1340.21 195.648C1316.97 208.568 1266.83 225.144 1236.86 235.047C1193.02 249.542 1152.93 257.596 1117.7 258.989C1072.64 260.673 1035.6 249.962 1007.63 227.154C995.301 217.104 984.779 205.415 974.604 194.11C964.105 182.447 953.249 170.389 940.321 159.992C930.679 152.2 920.707 146.088 909.836 141.305C888.75 132.007 863.511 128.5 832.676 130.581C804.77 132.466 775.893 138.787 754.807 143.403C734.885 147.764 716.502 150.475 698.726 153.096C687.793 154.708 677.468 156.232 667.493 158.042C666.791 158.169 666.089 158.303 665.39 158.437L664.783 158.553C639.713 163.322 613.79 168.255 581.044 172.774C532.718 179.445 486.216 157.839 445.187 138.776C436.169 134.586 427.652 130.629 419.398 127.104C417.251 126.187 414.971 125.215 412.765 124.291C384.823 112.588 358.106 105.688 331.089 103.195C325.995 102.725 320.86 102.408 315.679 102.246L315.677 102.251Z"></path>
<path fill="url(#paint19_linear_610_114799)" d="M303.874 101.498C282.301 100.819 259.851 102.892 235.828 107.748C177.874 119.463 127.265 128.496 73.6711 126.811C60.3067 126.39 46.7673 125.306 32.8704 123.429L32.7782 124.003C50.1635 126.35 67.2853 127.53 85.1252 127.608C101.306 127.679 117.758 126.838 135.421 125.033C168.761 121.628 202.018 115.181 235.996 108.313C298.34 95.71 351.281 101.805 407.649 128.075C409.976 129.159 412.298 130.265 414.264 131.204C421.825 134.817 429.61 138.814 437.853 143.046C457.832 153.303 480.476 164.93 503.727 172.618C530.361 181.426 554.043 183.842 576.13 180.004C603.62 175.227 626.288 168.842 648.211 162.666C651.339 161.784 654.573 160.873 657.762 159.984L658.202 159.861C658.935 159.657 659.668 159.452 660.404 159.253C673.974 155.596 688.366 152.511 703.603 149.244C716.937 146.386 730.723 143.429 745.195 139.833C795.895 127.237 853.88 115.64 900.375 137.651C911.176 142.755 921.008 149.273 930.435 157.579C943.046 168.648 953.479 181.506 963.567 193.942C973.434 206.102 983.637 218.678 995.824 229.492C1010.29 242.327 1027.46 251.75 1046.84 257.5C1064.56 262.757 1084.64 265.092 1106.52 264.438C1141.69 263.323 1182.06 255.185 1226.53 240.246C1276.44 223.477 1311.33 209.807 1330.21 199.619L1329.84 199.126C1310.99 209.294 1276.15 222.949 1226.27 239.705C1181.87 254.62 1141.57 262.745 1106.48 263.859C1060.91 265.219 1023.84 253.524 996.306 229.095C984.156 218.317 973.971 205.762 964.12 193.62C954.014 181.165 943.567 168.286 930.913 157.181C921.439 148.831 911.552 142.278 900.691 137.146C889.525 131.862 876.909 128.23 863.192 126.355C851.062 124.698 837.605 124.353 823.189 125.332C796.503 127.145 769.834 133.107 744.991 139.279C730.531 142.872 716.749 145.827 703.423 148.685C688.176 151.955 673.776 155.042 660.186 158.703C659.448 158.902 658.713 159.107 657.978 159.312L657.538 159.436C654.349 160.325 651.113 161.236 647.985 162.117C626.08 168.288 603.43 174.669 575.979 179.439C526.711 187.999 479.681 163.855 438.189 142.553C429.941 138.318 422.15 134.319 414.582 130.703C412.616 129.764 410.29 128.656 407.961 127.57C379.841 114.465 352.99 106.488 325.878 103.18C318.628 102.295 311.301 101.735 303.872 101.501L303.874 101.498Z"></path>
<path fill="url(#paint20_linear_610_114799)" d="M292.677 100.616C272.657 99.9874 251.868 101.795 229.775 106.056L227.868 106.425C157.923 119.918 97.5155 131.571 26.2469 122.374L26.1572 122.97C58.7759 127.179 91.1903 127.318 128.169 123.406C161.137 119.918 193.633 113.65 228.034 107.013L229.942 106.645C292.635 94.5521 345.95 102.172 402.811 131.351C404.718 132.33 406.814 133.425 409.41 134.799C416.412 138.502 423.608 142.554 431.225 146.843C451.34 158.171 474.139 171.01 497.668 179.399C524.651 189.021 548.671 191.401 571.102 186.674C596.705 181.278 618.042 173.181 638.677 165.35C642.578 163.87 646.612 162.339 650.59 160.86L650.742 160.804C651.55 160.503 652.357 160.204 653.169 159.911C672.258 153.004 693.165 147.296 715.3 141.254C721.831 139.471 728.587 137.627 735.414 135.719C783.454 122.297 844.576 109.912 891.207 133.497C901.994 138.946 911.738 145.899 920.996 154.757C933.332 166.526 943.359 180.197 953.054 193.419C962.593 206.425 972.455 219.875 984.473 231.424C998.734 245.131 1015.83 255.248 1035.3 261.494C1053.03 267.185 1073.22 269.82 1095.31 269.322C1130.36 268.484 1170.95 260.273 1215.96 244.917C1259.35 230.112 1298.19 214.486 1319.86 203.115L1319.48 202.6C1297.85 213.954 1259.04 229.562 1215.68 244.357C1170.75 259.686 1130.24 267.884 1095.27 268.72C1049.19 269.755 1012.09 257.074 984.992 231.027C973.017 219.517 963.169 206.09 953.646 193.106C943.934 179.862 933.89 166.168 921.513 154.36C912.206 145.453 902.406 138.459 891.553 132.979C880.367 127.322 867.713 123.405 853.941 121.338C841.695 119.5 828.154 119.067 813.695 120.051C784.991 122.004 756.658 129.144 735.182 135.145C728.357 137.051 721.603 138.895 715.072 140.678C692.923 146.724 672.002 152.436 652.883 159.353C652.07 159.646 651.26 159.948 650.451 160.249L650.298 160.305C646.319 161.785 642.283 163.316 638.381 164.798C617.774 172.618 596.465 180.705 570.921 186.088C520.906 196.63 473.461 169.914 431.604 146.341C423.981 142.049 416.781 137.994 409.772 134.287C407.172 132.912 405.072 131.816 403.163 130.836C374.886 116.326 347.906 107.27 320.678 103.153C311.481 101.762 302.164 100.916 292.675 100.618L292.677 100.616Z"></path>
<path fill="url(#paint21_linear_610_114799)" d="M823.957 114.361C817.586 114.16 810.981 114.289 804.183 114.751C781.23 116.31 755.452 121.629 725.373 131.013C694.244 140.725 668.761 149.373 645.584 160.01C644.743 160.396 643.91 160.785 643.062 161.184C638.74 163.213 634.359 165.329 630.122 167.375C610.442 176.88 590.091 186.707 565.864 192.743C515.269 205.348 467.486 176.026 425.33 150.156C418.223 145.794 411.51 141.675 404.964 137.877C402.489 136.44 400.332 135.206 398.367 134.107C369.989 118.206 342.883 108.086 315.499 103.167C286.634 97.981 256.616 98.3731 223.727 104.365C219.861 105.082 216.016 105.798 212.19 106.511C148.202 118.439 87.7636 129.705 19.6301 121.317L19.5408 121.935C50.7071 125.77 81.7365 125.861 117.195 122.22C148.74 118.979 179.641 113.22 212.357 107.121C216.183 106.408 220.026 105.692 223.892 104.975C243.985 101.315 263.124 99.7399 281.706 100.324C321.607 101.577 358.978 112.775 397.978 134.625C399.939 135.724 402.092 136.956 404.563 138.389C411.102 142.184 417.809 146.301 424.912 150.661C445.134 163.07 468.052 177.135 491.806 186.228C519.083 196.67 543.377 198.997 566.078 193.341C590.385 187.286 610.772 177.441 630.487 167.918C634.722 165.873 639.101 163.758 643.421 161.731C644.268 161.333 645.1 160.946 645.938 160.561C669.079 149.94 694.534 141.302 725.635 131.6C769.282 117.984 832.981 102.935 882.04 129.339C892.815 135.134 902.469 142.524 911.558 151.933C923.62 164.397 933.243 178.878 942.547 192.881C951.755 206.737 961.275 221.062 973.122 233.354C987.173 247.932 1004.21 258.743 1023.75 265.486C1041.5 271.611 1061.8 274.544 1084.09 274.206C1119.04 273.641 1159.84 265.359 1205.38 249.588C1243.14 236.512 1284.01 219.643 1309.5 206.611L1309.12 206.073C1283.66 219.09 1242.82 235.943 1205.1 249.008C1159.64 264.749 1118.92 273.018 1084.06 273.581C1037.48 274.289 1000.34 260.622 973.679 232.961C961.873 220.712 952.369 206.411 943.177 192.578C933.857 178.551 924.218 164.047 912.114 151.539C902.974 142.076 893.261 134.641 882.419 128.811C871.213 122.779 858.519 118.574 844.687 116.312C838.116 115.237 831.188 114.585 823.961 114.357L823.957 114.361Z"></path>
<path fill="url(#paint22_linear_610_114799)" d="M813.434 109.053C785.152 108.164 752.449 114.107 715.559 126.883C685.713 137.219 660.434 148.271 638.28 160.669C637.457 161.131 636.638 161.598 635.819 162.065C631.307 164.647 626.737 167.353 622.32 169.971C603.448 181.153 583.935 192.713 560.799 199.401C509.768 214.149 459.582 180.783 419.258 153.975C412.591 149.543 406.295 145.357 400.149 141.469C397.735 139.943 395.582 138.604 393.565 137.381C365.055 120.063 337.82 108.862 310.301 103.132C297.707 100.511 284.896 98.9916 271.742 98.5789C254.429 98.0339 236.515 99.4018 217.671 102.68C210.223 103.987 202.765 105.33 195.555 106.626C134.919 117.538 77.6438 127.841 13.0043 120.267L12.9174 120.906C77.6847 128.496 135.021 118.18 195.724 107.258C202.935 105.96 210.391 104.619 217.836 103.312C281.467 92.2448 335.533 102.912 393.138 137.905C395.151 139.128 397.301 140.463 399.709 141.987C405.847 145.87 412.14 150.053 418.803 154.483C439.113 167.987 462.134 183.292 486.085 193.098C513.621 204.372 538.143 206.635 561.052 200.015C584.287 193.301 603.843 181.713 622.756 170.508C627.171 167.891 631.739 165.186 636.247 162.607C637.064 162.14 637.883 161.675 638.701 161.215C660.815 148.84 686.052 137.807 715.854 127.485C782.357 104.455 835.185 103.682 872.869 125.185C883.632 131.325 893.197 139.15 902.115 149.111C913.905 162.268 923.124 177.551 932.039 192.331C940.91 207.039 950.085 222.249 961.764 235.286C975.601 250.732 992.565 262.238 1012.18 269.479C1029.95 276.038 1050.37 279.274 1072.86 279.091C1091.48 278.932 1111.99 276.473 1133.8 271.781C1152.82 267.694 1173.34 261.798 1194.8 254.26C1228.3 242.491 1267.31 225.987 1299.14 210.108L1298.75 209.548C1266.95 225.412 1227.97 241.903 1194.5 253.661C1148.53 269.81 1107.6 278.148 1072.84 278.445C1025.75 278.822 988.582 264.17 962.357 234.897C950.719 221.906 941.56 206.725 932.705 192.042C923.774 177.236 914.54 161.927 902.706 148.722C893.735 138.702 884.109 130.827 873.275 124.646C856.318 114.97 836.322 109.773 813.432 109.052L813.434 109.053Z"></path>
<path fill="url(#paint23_linear_610_114799)" d="M802.91 103.747C797.143 103.566 791.201 103.679 785.087 104.086C772.085 104.954 758.25 107.177 743.965 110.691C731.513 113.755 718.655 117.812 705.744 122.752C679.241 132.891 654.087 145.87 630.979 161.328C625.53 164.972 620.043 168.861 614.737 172.621C596.628 185.457 577.902 198.728 555.734 206.054C532.89 213.602 508.386 211.423 480.819 199.391C456.771 188.895 433.693 172.359 413.332 157.768C404.699 151.581 396.546 145.74 388.765 140.647C360.142 121.912 332.779 109.627 305.114 103.09C291.026 99.7608 276.677 97.8651 261.888 97.4001C245.743 96.892 229.073 98.088 211.619 100.984C201.022 102.741 190.473 104.59 180.273 106.378C122.524 116.504 67.9772 126.065 6.38331 119.208L6.29869 119.871C68.0224 126.742 122.63 117.17 180.444 107.035C190.643 105.247 201.19 103.398 211.782 101.642C275.855 91.0166 330.295 103.209 388.301 141.176C396.067 146.261 404.214 152.098 412.84 158.279C433.235 172.892 456.348 189.456 480.477 199.988C508.254 212.111 532.967 214.301 556.029 206.679C578.313 199.316 597.086 186.01 615.242 173.143C620.544 169.385 626.027 165.499 631.467 161.859C654.528 146.434 679.63 133.482 706.077 123.365C742.982 109.246 812.533 90.1672 863.7 121.028C892.171 138.199 907.101 165.432 921.541 191.768C930.074 207.333 938.899 223.427 950.413 237.217C960.222 248.966 971.771 258.627 984.739 265.932C996.847 272.754 1010.51 277.702 1025.35 280.64C1039.08 283.355 1054.17 284.421 1070.22 283.809C1084.88 283.251 1100.74 281.275 1117.34 277.937C1145.61 272.257 1176.06 262.787 1210.44 248.993C1239.04 237.517 1265 225.204 1288.79 213.609L1288.4 213.027C1234.27 239.404 1176.06 265.446 1117.15 277.288C1041.96 292.4 986.075 278.791 951.044 236.838C939.574 223.099 930.764 207.034 922.245 191.496C915.015 178.307 907.538 164.671 898.436 152.434C888.212 138.687 876.994 128.237 864.139 120.485C846.905 110.091 826.37 104.487 802.912 103.748L802.91 103.747Z"></path>
</g>
<defs>
<linearGradient gradientUnits="userSpaceOnUse" y2="182.152" x2="1523.59" y1="88.5762" x1="162.358" id="paint0_linear_610_114799">
<stop stop-color="#CE9E4A"></stop>
<stop stop-color="#F4E38D" offset="1"></stop>
</linearGradient>
<linearGradient gradientUnits="userSpaceOnUse" y2="183.144" x2="1513.41" y1="89.8013" x1="155.578" id="paint1_linear_610_114799">
<stop stop-color="#CE9E4A"></stop>
<stop stop-color="#F4E38D" offset="1"></stop>
</linearGradient>
<linearGradient gradientUnits="userSpaceOnUse" y2="184.162" x2="1503.23" y1="91.0539" x1="148.796" id="paint2_linear_610_114799">
<stop stop-color="#CE9E4A"></stop>
<stop stop-color="#F4E38D" offset="1"></stop>
</linearGradient>
<linearGradient gradientUnits="userSpaceOnUse" y2="185.227" x2="1493.05" y1="92.3519" x1="142.017" id="paint3_linear_610_114799">
<stop stop-color="#CE9E4A"></stop>
<stop stop-color="#F4E38D" offset="1"></stop>
</linearGradient>
<linearGradient gradientUnits="userSpaceOnUse" y2="186.316" x2="1482.86" y1="93.6756" x1="135.23" id="paint4_linear_610_114799">
<stop stop-color="#CE9E4A"></stop>
<stop stop-color="#F4E38D" offset="1"></stop>
</linearGradient>
<linearGradient gradientUnits="userSpaceOnUse" y2="187.441" x2="1472.67" y1="95.0345" x1="128.445" id="paint5_linear_610_114799">
<stop stop-color="#CE9E4A"></stop>
<stop stop-color="#F4E38D" offset="1"></stop>
</linearGradient>
<linearGradient gradientUnits="userSpaceOnUse" y2="189.031" x2="1462.44" y1="96.8585" x1="121.626" id="paint6_linear_610_114799">
<stop stop-color="#CE9E4A"></stop>
<stop stop-color="#F4E38D" offset="1"></stop>
</linearGradient>
<linearGradient gradientUnits="userSpaceOnUse" y2="191.247" x2="1452.17" y1="99.3081" x1="114.762" id="paint7_linear_610_114799">
<stop stop-color="#CE9E4A"></stop>
<stop stop-color="#F4E38D" offset="1"></stop>
</linearGradient>
<linearGradient gradientUnits="userSpaceOnUse" y2="193.869" x2="1441.88" y1="102.165" x1="107.876" id="paint8_linear_610_114799">
<stop stop-color="#CE9E4A"></stop>
<stop stop-color="#F4E38D" offset="1"></stop>
</linearGradient>
<linearGradient gradientUnits="userSpaceOnUse" y2="198.268" x2="1431.47" y1="106.798" x1="100.864" id="paint9_linear_610_114799">
<stop stop-color="#CE9E4A"></stop>
<stop stop-color="#F4E38D" offset="1"></stop>
</linearGradient>
<linearGradient gradientUnits="userSpaceOnUse" y2="202.337" x2="1421.07" y1="111.101" x1="93.8762" id="paint10_linear_610_114799">
<stop stop-color="#CE9E4A"></stop>
<stop stop-color="#F4E38D" offset="1"></stop>
</linearGradient>
<linearGradient gradientUnits="userSpaceOnUse" y2="206.016" x2="1410.7" y1="115.015" x1="86.9152" id="paint11_linear_610_114799">
<stop stop-color="#CE9E4A"></stop>
<stop stop-color="#F4E38D" offset="1"></stop>
</linearGradient>
<linearGradient gradientUnits="userSpaceOnUse" y2="209.258" x2="1400.36" y1="118.491" x1="79.9845" id="paint12_linear_610_114799">
<stop stop-color="#CE9E4A"></stop>
<stop stop-color="#F4E38D" offset="1"></stop>
</linearGradient>
<linearGradient gradientUnits="userSpaceOnUse" y2="212.227" x2="1390.04" y1="121.694" x1="73.0705" id="paint13_linear_610_114799">
<stop stop-color="#CE9E4A"></stop>
<stop stop-color="#F4E38D" offset="1"></stop>
</linearGradient>
<linearGradient gradientUnits="userSpaceOnUse" y2="214.962" x2="1379.74" y1="124.663" x1="66.1768" id="paint14_linear_610_114799">
<stop stop-color="#CE9E4A"></stop>
<stop stop-color="#F4E38D" offset="1"></stop>
</linearGradient>
<linearGradient gradientUnits="userSpaceOnUse" y2="217.491" x2="1369.45" y1="127.427" x1="59.2931" id="paint15_linear_610_114799">
<stop stop-color="#CE9E4A"></stop>
<stop stop-color="#F4E38D" offset="1"></stop>
</linearGradient>
<linearGradient gradientUnits="userSpaceOnUse" y2="219.863" x2="1359.17" y1="130.033" x1="52.4241" id="paint16_linear_610_114799">
<stop stop-color="#CE9E4A"></stop>
<stop stop-color="#F4E38D" offset="1"></stop>
</linearGradient>
<linearGradient gradientUnits="userSpaceOnUse" y2="219.867" x2="1349.05" y1="130.271" x1="45.714" id="paint17_linear_610_114799">
<stop stop-color="#CE9E4A"></stop>
<stop stop-color="#F4E38D" offset="1"></stop>
</linearGradient>
<linearGradient gradientUnits="userSpaceOnUse" y2="219.632" x2="1338.96" y1="130.27" x1="39.0245" id="paint18_linear_610_114799">
<stop stop-color="#CE9E4A"></stop>
<stop stop-color="#F4E38D" offset="1"></stop>
</linearGradient>
<linearGradient gradientUnits="userSpaceOnUse" y2="219.421" x2="1328.85" y1="130.295" x1="32.3332" id="paint19_linear_610_114799">
<stop stop-color="#CE9E4A"></stop>
<stop stop-color="#F4E38D" offset="1"></stop>
</linearGradient>
<linearGradient gradientUnits="userSpaceOnUse" y2="219.202" x2="1318.75" y1="130.309" x1="25.6401" id="paint20_linear_610_114799">
<stop stop-color="#CE9E4A"></stop>
<stop stop-color="#F4E38D" offset="1"></stop>
</linearGradient>
<linearGradient gradientUnits="userSpaceOnUse" y2="218.982" x2="1308.65" y1="130.323" x1="18.9517" id="paint21_linear_610_114799">
<stop stop-color="#CE9E4A"></stop>
<stop stop-color="#F4E38D" offset="1"></stop>
</linearGradient>
<linearGradient gradientUnits="userSpaceOnUse" y2="218.757" x2="1298.55" y1="130.332" x1="12.2569" id="paint22_linear_610_114799">
<stop stop-color="#CE9E4A"></stop>
<stop stop-color="#F4E38D" offset="1"></stop>
</linearGradient>
<linearGradient gradientUnits="userSpaceOnUse" y2="218.541" x2="1288.45" y1="130.351" x1="5.5658" id="paint23_linear_610_114799">
<stop stop-color="#CE9E4A"></stop>
<stop stop-color="#F4E38D" offset="1"></stop>
</linearGradient>
<clipPath id="clip0_610_114799">
<rect transform="matrix(0.997645 0.0685817 0.0685817 -0.997645 0 211.501)" fill="white" height="212" width="1517.99"></rect>
</clipPath>
</defs>
</svg>
