<svg width="201" height="35" viewBox="0 0 201 35" fill="none" xmlns="http://www.w3.org/2000/svg">
<g clip-path="url(#clip0_1_667)">
<path d="M17.0654 34.246V27.685C24.0214 27.685 29.3871 20.8268 26.7053 13.5695C26.2173 12.2224 25.4392 10.9991 24.4261 9.98604C23.4131 8.97297 22.1897 8.19491 20.8427 7.70692C19.2793 7.11905 17.597 6.91774 15.939 7.12013C14.2811 7.32253 12.6966 7.92263 11.3205 8.86934C9.94445 9.81605 8.81758 11.0813 8.03587 12.5574C7.25416 14.0334 6.84077 15.6765 6.83091 17.3468H0.271973C0.271973 6.4119 10.9055 -2.23624 22.5308 1.34354C25.0291 2.12826 27.3007 3.50517 29.1522 5.35699C31.0037 7.20881 32.3802 9.48068 33.1644 11.9791C36.7422 23.6104 28.0961 34.246 17.0654 34.246Z" fill="#00B6FF"/>
<path d="M17.1652 27.6851H10.6063V21.2239H17.1652M10.6063 32.7554H5.63766V27.6851H10.6063V32.7554ZM5.63766 27.6851H1.46924V23.5106H5.63766M60.1944 10.289C58.3067 8.99598 55.8224 8.2936 53.0388 8.2936H46.9787V27.6771H53.0408C55.8237 27.6771 58.2089 26.9813 60.1963 25.5899C61.2819 24.8002 62.139 23.7372 62.6806 22.5089C63.2793 21.2159 63.5746 19.6256 63.5746 17.9355C63.5746 16.2453 63.2773 14.655 62.6806 13.4617C62.082 11.9791 61.2878 10.9854 60.1944 10.289ZM50.5565 11.582H52.4442C54.5314 11.582 56.3193 11.9811 57.7101 12.8751C59.2006 13.769 59.905 15.4691 59.905 17.9454C59.905 20.4217 59.1069 22.2196 57.7101 23.2133C56.419 24.0115 54.7289 24.5064 52.5419 24.5064H50.5565V11.582ZM67.8468 8.00426C67.5706 7.99688 67.2958 8.04619 67.0395 8.14915C66.7831 8.25212 66.5506 8.40654 66.3562 8.60289C66.1298 8.77788 65.9484 9.00446 65.8273 9.26374C65.7061 9.52302 65.6487 9.80749 65.6598 10.0935C65.6598 10.647 65.8797 11.1779 66.2711 11.5693C66.6626 11.9608 67.1934 12.1807 67.747 12.1807C68.3006 12.1807 68.8315 11.9608 69.2229 11.5693C69.6143 11.1779 69.8342 10.647 69.8342 10.0935C69.8415 9.8173 69.7921 9.54258 69.6891 9.28623C69.5862 9.02987 69.4318 8.79731 69.2356 8.60289C68.9383 8.2038 68.4374 8.00426 67.8388 8.00426M66.0429 13.9686H69.5209V27.5873H66.0569V13.9686M81.9564 15.1658C80.9587 14.2719 79.7614 13.6752 78.4784 13.6752C77.6025 13.6559 76.7327 13.824 75.9271 14.1681C75.1215 14.5123 74.3987 15.0245 73.8071 15.6707C72.5659 16.9854 71.8884 18.7336 71.9194 20.5415C71.9194 22.4311 72.518 24.1192 73.7153 25.4123C74.9125 26.7053 76.4969 27.3019 78.3866 27.3019C79.6026 27.321 80.7906 26.9365 81.7648 26.2084V26.5058C81.7648 27.5993 81.4675 28.5012 80.8709 29.0998C80.2742 29.6984 79.4741 29.9938 78.3866 29.9938C76.7902 29.9938 75.8025 29.3951 74.6112 27.707L72.2167 29.9938L72.3165 30.0935C72.8134 30.7899 73.6075 31.4903 74.6013 32.1807C75.595 32.8711 76.886 33.1784 78.3766 33.1784C80.4638 33.1784 82.0541 32.5798 83.2454 31.2888C84.4367 29.9977 85.1331 28.4054 85.1331 26.3182V13.9686H81.7588V15.1658H81.9584M81.0644 23.2173C80.4658 23.9137 79.6676 24.215 78.6699 24.215C77.6722 24.215 76.874 23.9177 76.2754 23.2173C75.6768 22.5169 75.3815 21.621 75.3815 20.5335C75.3815 19.446 75.6987 18.5401 76.2974 17.8437C76.896 17.1473 77.6942 16.846 78.6919 16.846C79.6896 16.846 80.4877 17.1433 81.0864 17.8437C81.685 18.5441 81.9803 19.44 81.9803 20.5275C81.9803 21.615 81.683 22.5229 81.0864 23.2113M88.3397 13.9666H91.8177V27.5853H88.3178V13.9686M90.0079 8.00426C89.7319 7.99742 89.4574 8.04673 89.2011 8.1492C88.9448 8.25166 88.712 8.40516 88.5168 8.60035C88.3216 8.79555 88.1681 9.02838 88.0656 9.2847C87.9631 9.54103 87.9138 9.8155 87.9207 10.0915C87.9207 10.645 88.1406 11.1759 88.532 11.5673C88.9234 11.9588 89.4543 12.1787 90.0079 12.1787C90.5614 12.1787 91.0923 11.9588 91.4837 11.5673C91.8752 11.1759 92.0951 10.645 92.0951 10.0915C92.1019 9.81533 92.0526 9.54068 91.95 9.28422C91.8474 9.02776 91.6937 8.79484 91.4983 8.59961C91.3029 8.40439 91.0698 8.25094 90.8133 8.14859C90.5567 8.04625 90.282 7.99714 90.0059 8.00426M99.2447 10.289H95.8704V13.9686H93.875V17.0495H95.8704V22.7165C95.8704 24.5123 96.2695 25.7974 96.9639 26.4938C97.6583 27.1902 98.9593 27.5873 100.641 27.5873C101.207 27.6037 101.772 27.5703 102.332 27.4875H102.531V24.4046L101.334 24.5044C100.536 24.5044 99.9371 24.4046 99.7375 24.1053C99.4402 23.808 99.3384 23.2113 99.3384 22.3094V17.1493H102.519V14.0663H99.3484L99.2447 10.289ZM118.522 8.2936H122V27.6771H118.526V8.30557M156.687 22.8182C156.179 23.406 155.612 23.9408 154.997 24.4146C154.455 24.7427 153.834 24.9147 153.201 24.9114C152.735 24.9074 152.274 24.8073 151.849 24.6174C151.423 24.4276 151.041 24.152 150.726 23.808C150.03 23.0098 149.729 22.1178 149.729 20.9246C149.729 19.7313 150.026 18.8374 150.726 18.0412C151.028 17.6798 151.41 17.3931 151.84 17.2034C152.271 17.0137 152.74 16.9262 153.211 16.9477C154.304 16.9477 155.495 17.6441 156.489 18.8374L158.774 16.6424C157.283 14.7528 155.396 13.8588 153.109 13.8588C151.221 13.8588 149.631 14.5552 148.24 15.946C146.939 17.3108 146.222 19.1306 146.245 21.0164C146.245 23.0118 146.941 24.7937 148.24 26.0867C148.858 26.7588 149.612 27.2923 150.451 27.6521C151.29 28.0118 152.196 28.1897 153.109 28.1739C155.593 28.1739 157.581 27.0804 158.971 25.093L156.687 22.8063M170.699 15.948C170.176 15.2592 169.49 14.7107 168.703 14.3517C167.801 13.934 166.815 13.7292 165.822 13.7531C163.934 13.7531 162.344 14.4495 161.15 15.8403C160.021 17.2859 159.424 19.0765 159.46 20.9106C159.46 22.9978 160.059 24.6879 161.348 25.981C162.637 27.274 164.229 27.9764 166.317 27.9764C168.601 27.9764 170.491 27.0824 171.982 25.1928L172.081 25.093L169.797 22.8981C169.597 23.1954 169.3 23.3949 168.998 23.6962C168.716 23.9934 168.377 24.2304 168.001 24.3926C167.484 24.6758 166.9 24.8137 166.311 24.7917C165.445 24.8042 164.601 24.5228 163.916 23.9935C163.317 23.4967 163.022 22.7963 162.918 21.9063H172.061V20.6133C172.084 19.7318 171.949 18.8533 171.662 18.0193C171.517 17.2486 171.173 16.5291 170.665 15.9321M163.246 19.1367C163.398 18.5351 163.706 17.9844 164.14 17.5404C164.374 17.3063 164.655 17.1235 164.964 17.0036C165.274 16.8837 165.604 16.8294 165.935 16.844C166.734 16.844 167.426 17.0435 167.823 17.5404C168.222 17.9394 168.422 18.5381 168.52 19.1367H163.246ZM183.916 15.0601C182.918 14.1661 181.432 13.767 179.644 13.767C178.551 13.798 177.473 14.0349 176.467 14.4654C175.573 14.9623 174.671 15.6627 174.183 16.6604L176.377 18.7476C177.271 17.257 178.265 16.7522 179.656 16.7522C180.306 16.7349 180.942 16.9468 181.452 17.3508C181.678 17.5258 181.86 17.7524 181.981 18.0116C182.102 18.2709 182.159 18.5554 182.148 18.8414V19.5378C181.348 19.2678 180.508 19.1329 179.664 19.1387C177.974 19.1387 176.583 19.5378 175.49 20.3359C174.396 21.1341 173.893 22.3314 173.893 23.7162C173.893 25.0092 174.292 26.0029 175.184 26.7971C176.076 27.5913 177.18 27.8906 178.463 27.8906C179.746 27.8906 180.947 27.3937 182.14 26.4938V27.5873H185.518V18.8394C185.518 17.243 185.022 15.956 183.922 15.0621M177.86 22.4172C178.259 22.1198 178.754 22.0181 179.456 22.0181C180.338 22.0478 181.21 22.2155 182.04 22.5149V23.808C181.218 24.5317 180.155 24.9217 179.059 24.9014C178.461 24.9014 177.966 24.8017 177.663 24.5024C177.359 24.2031 177.166 23.9037 177.166 23.5047C177.201 23.2845 177.281 23.0738 177.401 22.8857C177.52 22.6976 177.677 22.5361 177.862 22.4112M198.722 15.2596C197.724 14.1661 196.437 13.6633 194.747 13.6633C193.356 13.6633 192.263 14.0623 191.469 14.8605V14.0623H188.089V27.6811H191.567V20.1304C191.567 19.1327 191.766 18.2407 192.263 17.6461C192.506 17.3558 192.812 17.1245 193.158 16.9697C193.504 16.8148 193.88 16.7404 194.258 16.7522C194.599 16.7356 194.939 16.7991 195.251 16.9377C195.563 17.0763 195.838 17.2862 196.054 17.5503C196.521 18.1857 196.766 18.957 196.751 19.7453V27.697H200.213V19.7333C200.113 17.8443 199.616 16.3531 198.722 15.2596ZM114.254 15.0601C113.256 14.1661 111.77 13.767 109.982 13.767C108.887 13.7969 107.808 14.0331 106.801 14.4634C105.907 14.9603 105.005 15.6607 104.517 16.6584L106.712 18.7456C107.605 17.255 108.599 16.7502 109.99 16.7502C110.64 16.7329 111.276 16.9448 111.786 17.3488C112.012 17.5238 112.194 17.7504 112.315 18.0096C112.436 18.2689 112.493 18.5534 112.482 18.8394V19.5358C111.682 19.2658 110.842 19.1309 109.998 19.1367C108.309 19.1367 106.917 19.5358 105.824 20.3339C104.73 21.1321 104.227 22.3294 104.227 23.7142C104.227 25.0072 104.626 26.0009 105.518 26.7951C106.41 27.5893 107.514 27.8886 108.797 27.8886C110.08 27.8886 111.281 27.3917 112.474 26.4918V27.5853H115.853V18.8394C115.853 17.243 115.254 15.956 114.256 15.0621M108.094 22.4172C108.493 22.1198 108.988 22.0181 109.691 22.0181C110.573 22.0478 111.445 22.2155 112.275 22.5149V23.808C111.452 24.5317 110.389 24.9217 109.294 24.9014C108.695 24.9014 108.2 24.8017 107.897 24.5024C107.593 24.2031 107.4 23.9037 107.4 23.5047C107.548 23.0932 107.786 22.7198 108.096 22.4112M134.436 27.9784C132.469 27.9792 130.547 27.3968 128.912 26.3049C127.276 25.2131 126.002 23.6607 125.249 21.8443C124.496 20.0279 124.298 18.0289 124.681 16.1002C125.064 14.1716 126.011 12.3999 127.401 11.0092C128.791 9.61847 130.562 8.67127 132.491 8.28736C134.419 7.90345 136.419 8.10009 138.235 8.85239C140.052 9.6047 141.605 10.8789 142.697 12.5138C143.79 14.1487 144.373 16.0709 144.373 18.0372C144.364 20.6702 143.314 23.1927 141.452 25.0548C139.591 26.917 137.069 27.9679 134.436 27.9784ZM134.436 11.4783C133.158 11.4763 131.908 11.8535 130.844 12.5621C129.78 13.2706 128.95 14.2788 128.46 15.459C127.969 16.6392 127.839 17.9385 128.087 19.1924C128.335 20.4462 128.949 21.5985 129.852 22.5032C130.755 23.408 131.906 24.0247 133.159 24.2752C134.413 24.5258 135.712 24.399 136.893 23.9109C138.075 23.4227 139.085 22.5952 139.795 21.533C140.506 20.4708 140.886 19.2216 140.887 17.9434C140.889 17.0946 140.723 16.2537 140.399 15.4691C140.075 14.6845 139.6 13.9716 138.999 13.3713C138.399 12.771 137.686 12.2951 136.902 11.9709C136.117 11.6468 135.277 11.4807 134.428 11.4823" fill="#00B6FF"/>
</g>
<defs>
<clipPath id="clip0_1_667">
<rect width="199.941" height="33.75" fill="white" transform="translate(0.271973 0.509705)"/>
</clipPath>
</defs>
</svg>
