<svg width="201" height="63" viewBox="0 0 201 63" fill="none" xmlns="http://www.w3.org/2000/svg">
<path d="M48.9609 16.0253L47.4297 40.0722L32.7891 8.54095L48.9609 16.0253ZM38.8203 47.1191L27.7578 53.4316L16.6953 47.1191H38.8203ZM8.07031 40.0722L6.55469 16.0253L22.7266 8.54095L8.07031 40.0722Z" fill="url(#paint0_linear_1_595)"/>
<path d="M27.7578 20.5097L33.5547 34.6035H21.9609L27.7578 20.5097Z" fill="url(#paint1_linear_1_595)"/>
<path d="M16.8702 47.2189L16.6953 47.1191L18.9453 41.666H36.5703L38.8203 47.1191L38.6455 47.2189H16.8702Z" fill="url(#paint2_linear_1_595)"/>
<path d="M38.6451 47.2189H16.8701L11.0059 43.8727H44.5093L38.6451 47.2189Z" fill="url(#paint3_linear_1_595)"/>
<path d="M80.7734 45.1347H86.6641L75.9297 14.6191H69.1016L58.3672 45.1347H64.2578L66.7734 37.6191H78.2422L80.7734 45.1347ZM68.2734 33.166L72.3984 20.8847H72.6328L76.7578 33.166H68.2734Z" fill="url(#paint4_linear_1_595)"/>
<path d="M92.4922 31.7285V45.1347H87.1016V22.2597H92.2578V26.1503H92.5234C93.0547 24.8691 93.8984 23.8535 95.0547 23.1035C96.2109 22.3535 97.6484 21.9785 99.3516 21.9785C100.93 21.9785 102.305 22.3222 103.492 22.9941C104.664 23.666 105.586 24.6503 106.227 25.9316C106.883 27.2128 107.195 28.7597 107.18 30.5878V45.1347H101.789V31.4003C101.789 29.8691 101.398 28.6816 100.602 27.8066C99.8047 26.9472 98.7266 26.5097 97.3359 26.5097C96.3984 26.5097 95.5547 26.7128 94.8203 27.1347C94.0859 27.541 93.5234 28.1347 93.1016 28.916C92.7109 29.6816 92.4922 30.6191 92.4922 31.7285Z" fill="url(#paint5_linear_1_595)"/>
<path d="M119.07 54.1816C117.133 54.1816 115.477 53.916 114.086 53.4003C112.695 52.8847 111.586 52.1816 110.742 51.3066C109.898 50.4316 109.305 49.4628 108.992 48.4003L113.852 47.2285C114.07 47.6816 114.383 48.1191 114.805 48.5566C115.227 48.9941 115.789 49.3691 116.492 49.666C117.195 49.9628 118.102 50.1035 119.18 50.1035C120.711 50.1035 121.977 49.7285 122.977 48.9941C123.977 48.2597 124.477 47.041 124.477 45.3535V41.0253H124.211C123.93 41.5878 123.523 42.1503 122.992 42.7441C122.461 43.3378 121.758 43.8222 120.898 44.2128C120.023 44.6035 118.945 44.8066 117.633 44.8066C115.883 44.8066 114.289 44.3847 112.852 43.5566C111.43 42.7285 110.289 41.4785 109.461 39.8378C108.617 38.1816 108.195 36.1191 108.195 33.6191C108.195 31.1035 108.617 28.9785 109.461 27.2441C110.305 25.5097 111.43 24.1972 112.867 23.291C114.305 22.3847 115.898 21.9472 117.648 21.9472C118.992 21.9472 120.102 22.166 120.961 22.6191C121.836 23.0722 122.523 23.6191 123.039 24.2441C123.555 24.8691 123.945 25.4628 124.211 26.0253H124.508V22.2441H129.82V45.4941C129.82 47.4472 129.352 49.0722 128.414 50.3535C127.477 51.6347 126.211 52.5878 124.586 53.2285C122.961 53.8691 121.117 54.1816 119.07 54.1816ZM119.117 40.5722C120.258 40.5722 121.227 40.291 122.039 39.7441C122.836 39.1816 123.461 38.3847 123.867 37.3535C124.289 36.3066 124.492 35.0566 124.492 33.6035C124.492 32.166 124.289 30.9003 123.867 29.8222C123.461 28.7441 122.852 27.9003 122.055 27.291C121.258 26.6972 120.273 26.3847 119.117 26.3847C117.914 26.3847 116.914 26.6972 116.102 27.3222C115.305 27.9472 114.695 28.8066 114.289 29.8847C113.883 30.9785 113.68 32.2128 113.68 33.5878C113.68 34.9941 113.883 36.2128 114.305 37.2597C114.711 38.3066 115.32 39.1191 116.133 39.6972C116.93 40.2753 117.93 40.5722 119.117 40.5722Z" fill="url(#paint6_linear_1_595)"/>
<path d="M146.148 35.5097V22.2597H151.539V45.1347H146.305V41.0722H146.07C145.555 42.3535 144.711 43.4003 143.523 44.2128C142.352 45.0253 140.898 45.4316 139.18 45.4316C137.68 45.4316 136.352 45.1035 135.211 44.4316C134.07 43.7597 133.164 42.791 132.523 41.4941C131.883 40.2128 131.555 38.6503 131.555 36.8222V22.2597H136.961V35.9941C136.961 37.4472 137.352 38.6035 138.148 39.4472C138.945 40.3066 139.992 40.7285 141.273 40.7285C142.07 40.7285 142.836 40.541 143.586 40.1503C144.336 39.7597 144.945 39.1816 145.43 38.416C145.914 37.6347 146.148 36.666 146.148 35.5097Z" fill="url(#paint7_linear_1_595)"/>
<path d="M158.695 14.6191H153.305V45.1347H158.695V14.6191Z" fill="url(#paint8_linear_1_595)"/>
<path d="M167.258 45.5878C165.805 45.5878 164.508 45.3222 163.352 44.8066C162.195 44.291 161.273 43.5097 160.617 42.4941C159.945 41.4785 159.617 40.2128 159.617 38.7128C159.617 37.416 159.852 36.3535 160.336 35.5097C160.82 34.666 161.461 33.9941 162.289 33.4785C163.117 32.9785 164.039 32.5878 165.086 32.3222C166.117 32.0566 167.195 31.8691 168.305 31.7441C169.648 31.6035 170.727 31.4785 171.57 31.3691C172.398 31.2597 173.008 31.0722 173.398 30.8378C173.773 30.5878 173.977 30.2128 173.977 29.6972V29.6035C173.977 28.4785 173.648 27.6191 172.977 26.9941C172.305 26.3847 171.352 26.0722 170.102 26.0722C168.773 26.0722 167.742 26.3535 166.961 26.9316C166.195 27.5097 165.68 28.1816 165.398 28.9785L160.367 28.2597C160.758 26.8691 161.414 25.7128 162.336 24.7597C163.242 23.8222 164.367 23.1191 165.68 22.6503C167.008 22.1816 168.461 21.9472 170.055 21.9472C171.164 21.9472 172.258 22.0722 173.352 22.3378C174.445 22.6035 175.445 23.0253 176.352 23.6191C177.258 24.2128 177.977 25.0097 178.539 26.0253C179.086 27.041 179.367 28.3066 179.367 29.8222V45.1347H174.18V41.9941H174.008C173.68 42.6347 173.227 43.2285 172.633 43.7753C172.039 44.3222 171.305 44.7753 170.414 45.1035C169.492 45.4316 168.461 45.5878 167.258 45.5878ZM168.664 41.6347C169.742 41.6347 170.68 41.416 171.477 40.9941C172.273 40.5566 172.883 39.9941 173.32 39.2753C173.758 38.5566 173.961 37.7753 173.961 36.9316V34.2285C173.789 34.3691 173.508 34.4941 173.102 34.6191C172.695 34.7441 172.258 34.8378 171.758 34.9316C171.258 35.0253 170.773 35.1035 170.289 35.166C169.805 35.2285 169.383 35.291 169.023 35.3378C168.227 35.4472 167.492 35.6191 166.867 35.8691C166.227 36.1191 165.727 36.4628 165.367 36.9003C164.992 37.3378 164.82 37.916 164.82 38.6035C164.82 39.6035 165.18 40.3535 165.914 40.8535C166.617 41.3847 167.539 41.6347 168.664 41.6347Z" fill="url(#paint9_linear_1_595)"/>
<path d="M181.008 45.1347V22.2597H186.242V26.0722H186.477C186.898 24.7441 187.617 23.7285 188.633 23.0097C189.648 22.291 190.82 21.9316 192.133 21.9316C192.43 21.9316 192.773 21.9472 193.133 21.9628C193.508 21.9941 193.82 22.0253 194.07 22.0722V27.0253C193.836 26.9472 193.477 26.8691 192.992 26.8066C192.508 26.7441 192.023 26.7128 191.57 26.7128C190.586 26.7128 189.711 26.9316 188.93 27.3535C188.148 27.7753 187.539 28.3535 187.086 29.1035C186.633 29.8535 186.414 30.7128 186.414 31.6816V45.1347H181.008Z" fill="url(#paint10_linear_1_595)"/>
<defs>
<linearGradient id="paint0_linear_1_595" x1="0.242187" y1="0.134704" x2="0.398437" y2="0.134704" gradientUnits="userSpaceOnUse">
<stop stop-color="#ED0100"/>
<stop offset="0.25" stop-color="#E449B4"/>
<stop offset="0.5" stop-color="#AE3BFC"/>
<stop offset="1" stop-color="#7F15FD"/>
</linearGradient>
<linearGradient id="paint1_linear_1_595" x1="0.242187" y1="0.134702" x2="0.398437" y2="0.134702" gradientUnits="userSpaceOnUse">
<stop stop-color="#ED0100"/>
<stop offset="0.25" stop-color="#E449B4"/>
<stop offset="0.5" stop-color="#AE3BFC"/>
<stop offset="1" stop-color="#7F15FD"/>
</linearGradient>
<linearGradient id="paint2_linear_1_595" x1="0.242189" y1="0.134706" x2="0.398439" y2="0.134706" gradientUnits="userSpaceOnUse">
<stop stop-color="#ED0100"/>
<stop offset="0.25" stop-color="#E449B4"/>
<stop offset="0.5" stop-color="#AE3BFC"/>
<stop offset="1" stop-color="#7F15FD"/>
</linearGradient>
<linearGradient id="paint3_linear_1_595" x1="0.241953" y1="0.134742" x2="0.398203" y2="0.134742" gradientUnits="userSpaceOnUse">
<stop stop-color="#ED0100"/>
<stop offset="0.25" stop-color="#E449B4"/>
<stop offset="0.5" stop-color="#AE3BFC"/>
<stop offset="1" stop-color="#7F15FD"/>
</linearGradient>
<linearGradient id="paint4_linear_1_595" x1="0.242197" y1="0.134705" x2="0.398447" y2="0.134705" gradientUnits="userSpaceOnUse">
<stop stop-color="#ED0100"/>
<stop offset="0.25" stop-color="#E449B4"/>
<stop offset="0.5" stop-color="#AE3BFC"/>
<stop offset="1" stop-color="#7F15FD"/>
</linearGradient>
<linearGradient id="paint5_linear_1_595" x1="0.242188" y1="0.134704" x2="0.398438" y2="0.134704" gradientUnits="userSpaceOnUse">
<stop stop-color="#ED0100"/>
<stop offset="0.25" stop-color="#E449B4"/>
<stop offset="0.5" stop-color="#AE3BFC"/>
<stop offset="1" stop-color="#7F15FD"/>
</linearGradient>
<linearGradient id="paint6_linear_1_595" x1="0.242207" y1="0.134704" x2="0.398457" y2="0.134704" gradientUnits="userSpaceOnUse">
<stop stop-color="#ED0100"/>
<stop offset="0.25" stop-color="#E449B4"/>
<stop offset="0.5" stop-color="#AE3BFC"/>
<stop offset="1" stop-color="#7F15FD"/>
</linearGradient>
<linearGradient id="paint7_linear_1_595" x1="0.242223" y1="0.134706" x2="0.398473" y2="0.134706" gradientUnits="userSpaceOnUse">
<stop stop-color="#ED0100"/>
<stop offset="0.25" stop-color="#E449B4"/>
<stop offset="0.5" stop-color="#AE3BFC"/>
<stop offset="1" stop-color="#7F15FD"/>
</linearGradient>
<linearGradient id="paint8_linear_1_595" x1="0.242191" y1="0.134705" x2="0.398441" y2="0.134705" gradientUnits="userSpaceOnUse">
<stop stop-color="#ED0100"/>
<stop offset="0.25" stop-color="#E449B4"/>
<stop offset="0.5" stop-color="#AE3BFC"/>
<stop offset="1" stop-color="#7F15FD"/>
</linearGradient>
<linearGradient id="paint9_linear_1_595" x1="0.242159" y1="0.134706" x2="0.398409" y2="0.134706" gradientUnits="userSpaceOnUse">
<stop stop-color="#ED0100"/>
<stop offset="0.25" stop-color="#E449B4"/>
<stop offset="0.5" stop-color="#AE3BFC"/>
<stop offset="1" stop-color="#7F15FD"/>
</linearGradient>
<linearGradient id="paint10_linear_1_595" x1="0.242233" y1="0.134705" x2="0.398483" y2="0.134705" gradientUnits="userSpaceOnUse">
<stop stop-color="#ED0100"/>
<stop offset="0.25" stop-color="#E449B4"/>
<stop offset="0.5" stop-color="#AE3BFC"/>
<stop offset="1" stop-color="#7F15FD"/>
</linearGradient>
</defs>
</svg>
