<svg width="201" height="58" viewBox="0 0 201 58" fill="none" xmlns="http://www.w3.org/2000/svg">
<g clip-path="url(#clip0_1_643)">
<path d="M22.8558 2.78935C23.2557 2.78935 23.4557 2.98932 23.8556 3.18928C21.4561 4.18911 19.0565 6.78865 17.8567 12.3877L13.4575 13.5875C14.8572 9.58816 17.6567 2.78935 22.8558 2.78935ZM25.0554 4.789C25.4554 5.98879 25.8553 7.38855 25.8553 9.58816C25.8553 9.78813 25.8553 9.78813 25.8553 9.98809L20.0563 11.5878C21.2561 7.38855 23.2557 5.58886 25.0554 4.789ZM30.2545 8.38837L27.655 9.18823C27.655 8.98827 27.655 8.7883 27.655 8.58834C27.655 6.78865 27.455 5.3889 27.0551 4.18911C28.4548 4.58904 29.6546 6.38872 30.2545 8.38837ZM43.2522 11.5878C43.2522 11.3878 43.0523 11.1879 42.8523 11.1879C42.4524 11.1879 38.2531 10.788 38.2531 10.788C38.2531 10.788 35.2536 7.78848 34.8537 7.58851C34.4538 7.18858 33.8539 7.38855 33.6539 7.38855C33.6539 7.38855 33.054 7.58851 32.0542 7.98844C31.0544 5.18893 29.2547 2.58939 26.2552 2.58939H26.0553C25.2554 1.3896 24.0556 0.989667 23.0558 0.989667C15.857 0.789702 12.4576 9.78813 11.2578 14.3873C9.65812 14.7873 8.0584 15.3871 6.25872 15.987C4.659 16.387 4.659 16.5869 4.45903 17.9867C4.25907 18.9865 0.259766 50.581 0.259766 50.581L32.0542 56.5799L49.2512 52.7806C49.2512 52.7806 43.2522 11.9877 43.2522 11.5878Z" fill="#8DB849"/>
<path d="M42.6523 11.1879C42.4524 11.1879 38.2531 10.788 38.2531 10.788C38.2531 10.788 35.2536 7.78848 34.8537 7.58852C34.6537 7.38855 34.6537 7.38855 34.4538 7.38855L32.0542 56.5799L49.2512 52.7806C49.2512 52.7806 43.2522 11.9877 43.2522 11.5878C43.2522 11.3879 42.8523 11.1879 42.6523 11.1879Z" fill="#5A863E"/>
<path d="M26.2554 20.7862L24.0558 27.1851C24.0558 27.1851 22.2561 26.1853 19.8566 26.1853C16.4572 26.1853 16.2572 28.1849 16.2572 28.7848C16.2572 31.5843 23.8559 32.7841 23.8559 39.5829C23.8559 44.982 20.4565 48.3814 15.8573 48.3814C10.4582 48.3814 7.65869 44.982 7.65869 44.982L9.05845 40.1828C9.05845 40.1828 11.858 42.5824 14.2575 42.5824C15.8573 42.5824 16.4572 41.3826 16.4572 40.3828C16.4572 36.5834 10.2582 36.3835 10.2582 30.1846C10.2582 24.9855 14.0576 19.9863 21.4563 19.9863C24.8557 19.7864 26.2554 20.7862 26.2554 20.7862Z" fill="#FFFFFE"/>
<path d="M69.4479 32.5841C67.6482 31.5843 66.8483 30.7845 66.8483 29.7846C66.8483 28.3849 68.0481 27.585 70.0478 27.585C72.2474 27.585 74.247 28.5848 74.247 28.5848L75.8467 23.7857C75.8467 23.7857 74.447 22.5859 70.2477 22.5859C64.2488 22.5859 60.2495 25.9853 60.2495 30.7845C60.2495 33.584 62.2491 35.5836 64.6487 36.9834C66.6484 38.1832 67.4482 38.983 67.4482 40.1828C67.4482 41.3826 66.4484 42.5824 64.4487 42.5824C61.6492 42.5824 58.8497 41.1826 58.8497 41.1826L57.25 45.9818C57.25 45.9818 59.6496 47.5815 63.8488 47.5815C69.8478 47.5815 74.247 44.582 74.247 39.183C74.247 36.1835 72.0474 33.9839 69.4479 32.5841ZM93.6436 22.3859C90.6442 22.3859 88.2446 23.7857 86.4449 25.9853L89.0444 12.3877H82.2456L75.6468 46.9816H82.4456L84.6452 35.1837C85.4451 30.7845 87.8447 27.9849 90.0443 27.9849C91.644 27.9849 92.2439 28.9848 92.2439 30.5845C92.2439 31.5843 92.2439 32.5841 92.0439 33.584L89.4444 47.1816H96.2432L98.8427 33.184C99.0427 31.7843 99.2427 29.9846 99.2427 28.7848C99.2427 24.7855 97.243 22.3859 93.6436 22.3859ZM111.041 42.1825C108.641 42.1825 107.841 40.1828 107.841 37.7832C107.841 33.9839 109.841 27.585 113.44 27.585C115.84 27.585 116.64 29.5847 116.64 31.5843C116.64 35.9835 114.64 42.1825 111.041 42.1825ZM114.44 22.3859C106.241 22.3859 100.842 29.7846 100.842 37.9832C100.842 43.1823 104.042 47.3816 110.241 47.3816C118.239 47.3816 123.638 40.1828 123.638 31.7843C123.638 26.9851 120.839 22.3859 114.44 22.3859ZM134.437 42.3824C132.637 42.3824 131.637 41.3826 131.637 41.3826L132.837 34.9837C133.637 30.7845 135.836 27.9849 138.236 27.9849C140.235 27.9849 141.035 29.9846 141.035 31.7843C140.835 36.1835 138.236 42.3824 134.437 42.3824ZM141.035 22.3859C136.436 22.3859 133.837 26.3852 133.837 26.3852L134.237 22.7859H128.238C128.038 25.1854 127.438 28.9848 126.838 31.7843L122.039 56.5799H128.837L130.637 46.5817H130.837C130.837 46.5817 132.237 47.3816 134.836 47.3816C142.835 47.3816 148.034 39.183 148.034 30.9844C148.034 26.5852 146.034 22.3859 141.035 22.3859ZM157.632 12.7876C155.433 12.7876 153.833 14.5873 153.833 16.7869C153.833 18.7866 155.033 20.1863 157.033 20.1863C159.232 20.1863 161.032 18.7866 161.032 16.187C161.032 14.1874 159.632 12.7876 157.632 12.7876ZM148.234 46.9816H155.033L159.632 22.9858H152.833L148.234 46.9816ZM176.829 22.9858H172.03L172.23 21.786C172.63 19.3865 174.03 17.3868 176.229 17.3868C177.429 17.3868 178.429 17.7867 178.429 17.7867L179.829 12.3877C179.829 12.3877 178.629 11.7878 176.229 11.7878C173.83 11.7878 171.43 12.3877 169.63 13.9874C167.231 15.987 166.231 18.7866 165.631 21.5861L165.431 22.7859H162.232L161.232 27.9849H164.431L160.832 46.9816H167.631L171.23 27.9849H175.829L176.829 22.9858ZM193.026 22.9858C193.026 22.9858 188.827 33.584 186.827 39.383C186.627 37.5833 185.228 22.9858 185.228 22.9858H178.029L182.028 44.982C182.028 45.3819 182.028 45.7818 181.828 46.1818C181.028 47.7815 179.629 49.1812 178.229 50.1811C177.029 51.1809 175.429 51.7808 174.43 52.1807L176.229 57.9797C177.629 57.7797 180.428 56.5799 182.828 54.3803C185.828 51.5808 188.827 46.9816 191.626 40.9827L199.825 23.1858L193.026 22.9858Z" fill="#1B1817"/>
</g>
<defs>
<clipPath id="clip0_1_643">
<rect width="199.965" height="57.19" fill="white" transform="translate(0.259766 0.789673)"/>
</clipPath>
</defs>
</svg>
