<svg width="49" height="49" viewBox="0 0 49 49" fill="none" xmlns="http://www.w3.org/2000/svg">
<path fill-rule="evenodd" clip-rule="evenodd" d="M30.9091 29.1385H18.9091C11.6189 29.1385 5.70908 35.1608 5.70908 42.5895V44.599H44.1091V42.5895C44.1091 35.1608 38.1993 29.1385 30.9091 29.1385ZM18.9091 26.6929C10.2934 26.6929 3.30908 33.8101 3.30908 42.5895V47.0446H46.5091V42.5895C46.5091 33.8101 39.5248 26.6929 30.9091 26.6929H18.9091Z" fill="white"/>
<path d="M35.3721 12.45C35.3721 18.5281 30.5365 23.4554 24.572 23.4554C18.6073 23.4554 13.772 18.5281 13.772 12.45C13.772 6.37191 18.6073 1.44464 24.572 1.44464C30.5365 1.44464 35.3721 6.37191 35.3721 12.45ZM24.572 21.0097C29.2113 21.0097 32.9721 17.1774 32.9721 12.45C32.9721 7.72258 29.2113 3.89026 24.572 3.89026C19.9328 3.89026 16.172 7.72258 16.172 12.45C16.172 17.1774 19.9328 21.0097 24.572 21.0097Z" fill="white"/>
</svg>
