<svg width="201" height="57" viewBox="0 0 201 57" fill="none" xmlns="http://www.w3.org/2000/svg">
<g clip-path="url(#clip0_1_652)">
<path d="M0.247559 13.075C0.247559 6.03045 5.95831 0.319702 13.0029 0.319702H43.3105C50.355 0.319702 56.0657 6.03045 56.0657 13.075V43.3826C56.0657 50.4272 50.355 56.1379 43.3105 56.1379H13.0029C5.95831 56.1379 0.247559 50.4272 0.247559 43.3826V13.075Z" fill="black"/>
<path d="M15.0742 41.3112C15.0742 37.6986 18.0028 34.77 21.6154 34.77H28.1566V41.3112C28.1566 44.9239 25.228 47.8522 21.6154 47.8522C18.0028 47.8522 15.0742 44.9239 15.0742 41.3112Z" fill="#24CB71"/>
<path d="M28.1567 8.60522V21.6876H34.6979C38.3105 21.6876 41.2391 18.759 41.2391 15.1464C41.2391 11.5338 38.3105 8.60522 34.6979 8.60522H28.1567Z" fill="#FF7237"/>
<path d="M34.6432 34.77C38.2558 34.77 41.1844 31.8414 41.1844 28.2288C41.1844 24.6162 38.2558 21.6876 34.6432 21.6876C31.0306 21.6876 28.1021 24.6162 28.1021 28.2288C28.1021 31.8414 31.0306 34.77 34.6432 34.77Z" fill="#00B6FF"/>
<path d="M15.0742 15.1464C15.0742 18.759 18.0028 21.6876 21.6154 21.6876H28.1566V8.60522H21.6154C18.0028 8.60522 15.0742 11.5338 15.0742 15.1464Z" fill="#FF3737"/>
<path d="M15.0742 28.2288C15.0742 31.8414 18.0028 34.77 21.6154 34.77H28.1566V21.6876H21.6154C18.0028 21.6876 15.0742 24.6162 15.0742 28.2288Z" fill="#874FFF"/>
<path d="M187.761 47.4751C186.041 47.4751 184.497 47.1429 183.128 46.4777C181.794 45.8128 180.724 44.9202 179.917 43.8001C179.145 42.645 178.758 41.3151 178.758 39.8101C178.758 37.8501 179.39 36.2576 180.653 35.0326C181.917 33.8075 183.725 32.9675 186.076 32.5125L192.236 31.2525C193.464 31.0075 194.306 30.6225 194.763 30.0975C195.219 29.5725 195.447 28.8025 195.447 27.7874L196.079 33.93L187.234 35.82C186.041 36.0651 185.111 36.5026 184.444 37.1326C183.812 37.7626 183.497 38.6376 183.497 39.7576C183.497 40.9126 183.935 41.8401 184.812 42.5403C185.725 43.24 186.954 43.5901 188.498 43.5901C189.761 43.5901 190.919 43.3103 191.973 42.7502C193.061 42.1902 193.903 41.4202 194.5 40.4401C195.131 39.4251 195.447 38.2701 195.447 36.9751V27.7874C195.447 26.5274 194.991 25.5474 194.078 24.8474C193.201 24.1124 191.99 23.7449 190.446 23.7449C188.48 23.7449 186.971 24.2349 185.918 25.2149C184.865 26.1949 184.251 27.5775 184.076 29.3625L179.443 28.7324C179.618 26.8774 180.18 25.2849 181.127 23.9549C182.075 22.5899 183.339 21.5399 184.918 20.8048C186.497 20.0698 188.375 19.7023 190.551 19.7023C193.64 19.7023 196.009 20.4898 197.658 22.0649C199.308 23.6399 200.133 25.6699 200.133 28.1549V46.6876H195.552V43.2754C195.096 44.4304 194.166 45.4278 192.762 46.2677C191.393 47.0726 189.726 47.4751 187.761 47.4751Z" fill="black"/>
<path d="M141.43 46.6876V20.4898H146.01V23.4299C146.361 22.4149 147.133 21.5399 148.326 20.8048C149.519 20.0698 150.906 19.7023 152.485 19.7023C154.029 19.7023 155.451 20.0348 156.749 20.6998C158.048 21.3649 158.891 22.3624 159.277 23.6924C159.733 22.4674 160.575 21.5049 161.804 20.8048C163.067 20.0698 164.471 19.7023 166.015 19.7023C168.683 19.7023 170.718 20.4724 172.122 22.0123C173.526 23.5524 174.228 25.7924 174.228 28.7324V46.6876H169.542V29.3625C169.542 27.6124 169.157 26.2999 168.385 25.4249C167.647 24.5149 166.559 24.0599 165.12 24.0599C163.541 24.0599 162.313 24.6199 161.435 25.7399C160.593 26.8249 160.172 28.4174 160.172 30.5175V46.6876H155.486V29.3625C155.486 27.6124 155.1 26.2999 154.328 25.4249C153.591 24.5149 152.503 24.0599 151.064 24.0599C149.485 24.0599 148.256 24.6199 147.379 25.7399C146.536 26.8249 146.115 28.4174 146.115 30.5175V46.6876H141.43Z" fill="black"/>
<path d="M123.514 56.1379C120.25 56.1379 117.6 55.3853 115.564 53.8802C113.529 52.3755 112.23 50.2754 111.668 47.5803L116.249 46.5829C116.635 48.2975 117.459 49.6276 118.723 50.5727C119.987 51.5527 121.584 52.0429 123.514 52.0429C125.83 52.0429 127.568 51.4479 128.726 50.2579C129.919 49.1029 130.516 47.3703 130.516 45.0603V40.9126C129.989 42.2076 129.007 43.2575 127.568 44.0628C126.164 44.8678 124.584 45.2703 122.83 45.2703C120.513 45.2703 118.477 44.7451 116.723 43.6953C114.968 42.6101 113.599 41.1051 112.616 39.1801C111.634 37.2551 111.142 35.0326 111.142 32.5125C111.142 29.9575 111.634 27.7174 112.616 25.7924C113.599 23.8674 114.95 22.3799 116.67 21.3299C118.425 20.2448 120.478 19.7023 122.83 19.7023C124.584 19.7023 126.181 20.1048 127.62 20.9098C129.095 21.6799 130.094 22.6424 130.621 23.7974V20.4898H135.201V45.0603C135.201 47.3703 134.745 49.3478 133.832 50.9926C132.92 52.6728 131.586 53.9505 129.831 54.8252C128.112 55.7005 126.006 56.1379 123.514 56.1379ZM123.409 41.1226C125.655 41.1226 127.445 40.3351 128.779 38.7601C130.147 37.1851 130.832 35.1025 130.832 32.5125C130.832 29.8875 130.147 27.7874 128.779 26.2124C127.41 24.6374 125.62 23.8499 123.409 23.8499C121.162 23.8499 119.355 24.6374 117.986 26.2124C116.652 27.7874 115.985 29.8875 115.985 32.5125C115.985 35.1025 116.67 37.1851 118.039 38.7601C119.407 40.3351 121.197 41.1226 123.409 41.1226Z" fill="black"/>
<path d="M101.686 46.6876V20.4899H106.372V46.6876H101.686ZM101.634 17.1298V9.67468H106.424V17.1298H101.634Z" fill="black"/>
<path d="M74.7759 46.6876V9.67468H79.7245V46.6876H74.7759ZM75.7762 31.0425V26.5799H95.9398V31.0425H75.7762ZM75.7762 14.1897V9.67468H97.8877V14.1897H75.7762Z" fill="black"/>
</g>
<defs>
<clipPath id="clip0_1_652">
<rect width="199.989" height="56.13" fill="white" transform="translate(0.247559 0.319702)"/>
</clipPath>
</defs>
</svg>
