<svg width="49" height="49" viewBox="0 0 49 49" fill="none" xmlns="http://www.w3.org/2000/svg">
<path d="M23.4321 11.764C16.8059 12.0744 10.3751 16.1341 3.38896 23.4417C2.95987 23.8905 2.95987 24.5984 3.38896 25.0472C10.3751 32.355 16.8059 36.4148 23.4321 36.7254C30.0316 37.0345 37.2158 33.6378 45.7478 25.0604C46.1963 24.6094 46.1963 23.8802 45.7478 23.4291C37.2158 14.8518 30.0316 11.4549 23.4321 11.764ZM23.3159 9.26672C30.9407 8.90957 38.7714 12.877 47.511 21.663C48.9306 23.09 48.9306 25.3995 47.511 26.8266C38.7714 35.6125 30.9407 39.5799 23.3159 39.2226C15.7177 38.8664 8.71456 34.2294 1.591 26.7778C0.237243 25.3618 0.237243 23.1271 1.59101 21.711C8.71456 14.2597 15.7177 9.62261 23.3159 9.26672Z" fill="white"/>
<path d="M33.1694 24.2451C33.1694 28.9825 29.3138 32.7853 24.6045 32.7853C19.8952 32.7853 16.0396 28.9825 16.0396 24.2451C16.0396 19.5074 19.8952 15.7048 24.6045 15.7048C29.3138 15.7048 33.1694 19.5074 33.1694 24.2451ZM24.6045 30.2852C27.9587 30.2852 30.6779 27.5809 30.6779 24.2451C30.6779 20.9091 27.9587 18.2048 24.6045 18.2048C21.2502 18.2048 18.531 20.9091 18.531 24.2451C18.531 27.5809 21.2502 30.2852 24.6045 30.2852Z" fill="white"/>
</svg>
