<svg width="151" height="47" viewBox="0 0 151 47" fill="none" xmlns="http://www.w3.org/2000/svg">
<g clip-path="url(#clip0_1_788)">
<path d="M66.0151 17.4172C66.0483 17.4172 66.0815 17.4125 66.1148 17.3982L68.3608 16.4771C68.4462 16.4439 68.508 16.3632 68.5222 16.273L68.9638 13.1679C68.978 13.0825 68.9448 12.997 68.8831 12.9401L63.1375 7.63213C63.5316 7.30454 63.7643 6.82027 63.7643 6.30276C63.7643 5.33898 62.9808 4.5556 62.0169 4.5556C61.053 4.5556 60.2695 5.33898 60.2695 6.30276C60.2695 7.26655 61.053 8.0499 62.0169 8.0499C62.1783 8.0499 62.335 8.0262 62.487 7.98345L65.7633 17.251C65.7871 17.3175 65.8393 17.3745 65.9058 17.4029C65.9391 17.4172 65.9771 17.4267 66.0151 17.4267V17.4172ZM62.5962 7.36625C62.5962 7.36625 62.5725 7.3805 62.563 7.38524C62.5535 7.38524 62.5488 7.38999 62.5392 7.39474C62.3683 7.47545 62.1973 7.51343 62.0217 7.51343C61.3474 7.51343 60.8013 6.96745 60.8013 6.29327C60.8013 5.61909 61.3474 5.0731 62.0217 5.0731C62.6959 5.0731 63.242 5.61909 63.242 6.29327C63.242 6.73956 62.9951 7.14786 62.5962 7.3615V7.36625ZM68.1328 12.9591L64.7234 12.3893C64.6855 12.3799 64.6475 12.3893 64.6142 12.3988L63.204 8.40128L68.1328 12.9591ZM64.7709 12.8403L68.3893 13.4481C68.3893 13.4481 68.3893 13.4481 68.394 13.4481L68.0236 16.0498L66.1718 16.8094L64.7709 12.8452V12.8403Z" fill="#F49D1E"/>
<path d="M88.8979 4.55088C87.9341 4.55088 87.1507 5.33425 87.1507 6.29804C87.1507 6.81554 87.3831 7.2998 87.7771 7.6274L82.032 12.9353C81.9699 12.9923 81.9365 13.0778 81.9512 13.1633L82.3927 16.2683C82.4067 16.3584 82.4688 16.4392 82.5543 16.4724L84.7997 17.3934C84.8331 17.4077 84.8665 17.4125 84.8999 17.4125C84.938 17.4125 84.9707 17.403 85.0087 17.3887C85.0756 17.3603 85.1276 17.3033 85.1517 17.2368L88.423 7.96924C88.58 8.01673 88.7362 8.03569 88.8932 8.03569C89.8569 8.03569 90.6403 7.25233 90.6403 6.28854C90.6403 5.32476 89.8569 4.54138 88.8932 4.54138L88.8979 4.55088ZM84.7476 16.8048L82.8955 16.0451L82.5256 13.4434C82.5256 13.4434 82.5256 13.4434 82.5302 13.4434L86.1489 12.8356L84.7476 16.8V16.8048ZM86.3051 12.3988C86.2717 12.3846 86.2344 12.3799 86.1963 12.3893L82.7867 12.9591L87.7157 8.40129L86.3051 12.3988ZM88.8979 7.5182C88.7222 7.5182 88.5466 7.47548 88.3802 7.39951C88.3709 7.39951 88.3662 7.39476 88.3561 7.39001C88.3468 7.38052 88.3328 7.37577 88.3235 7.36628C87.9248 7.15263 87.6776 6.74432 87.6776 6.29804C87.6776 5.62386 88.2232 5.07788 88.8979 5.07788C89.5725 5.07788 90.1181 5.62386 90.1181 6.29804C90.1181 6.97221 89.5725 7.5182 88.8979 7.5182Z" fill="#F49D1E"/>
<path d="M74.2963 16.1401C74.339 16.2303 74.434 16.2825 74.529 16.2825H76.3666C76.4663 16.2825 76.5565 16.2255 76.5993 16.1401L78.8598 11.6677C78.8925 11.6013 78.8971 11.5301 78.8738 11.4588L76.0294 3.46843C76.7227 3.23104 77.1976 2.5806 77.1976 1.82571C77.1976 0.861925 76.4141 0.0785522 75.4502 0.0785522C74.4862 0.0785522 73.7027 0.861925 73.7027 1.82571C73.7027 2.5806 74.1776 3.23104 74.8709 3.46843L72.0265 11.4588C72.0028 11.5253 72.0076 11.6013 72.0408 11.663L74.2915 16.1353L74.2963 16.1401ZM78.2661 11.6962L76.2099 15.7602H75.6449V7.57045L78.1946 11.6345C78.214 11.663 78.242 11.6819 78.2707 11.6962H78.2661ZM78.0617 10.7324L75.6401 6.87729V3.93845L78.0617 10.7324ZM74.2393 1.83046C74.2393 1.15628 74.7854 0.610297 75.4597 0.610297C76.1339 0.610297 76.6799 1.15628 76.6799 1.83046C76.6799 2.43342 76.2479 2.93668 75.6496 3.03163C75.5736 3.04588 75.3457 3.04588 75.2697 3.03163C74.6714 2.93668 74.2393 2.43342 74.2393 1.83046ZM75.2745 3.93845V6.87254L72.8528 10.7277L75.2745 3.9337V3.93845ZM72.7246 11.6298L75.2745 7.5657V15.7555H74.6951L72.6533 11.6915C72.6819 11.6772 72.7103 11.6535 72.7293 11.625L72.7246 11.6298Z" fill="#F49D1E"/>
<path d="M84.8569 18.1674C81.8934 17.479 78.731 17.1276 75.4596 17.1276C72.188 17.1276 69.0208 17.479 66.0626 18.1674C65.9438 18.1959 65.8584 18.3003 65.8584 18.4238V21.8849C65.8584 21.9656 65.8964 22.0416 65.9581 22.089C66.0056 22.127 66.0626 22.146 66.1195 22.146C66.1385 22.146 66.1575 22.146 66.1812 22.1412C69.1062 21.4623 72.2259 21.1158 75.4596 21.1158C78.6937 21.1158 81.818 21.4623 84.738 22.1412C84.8141 22.1602 84.8996 22.1412 84.961 22.089C85.0232 22.0416 85.0605 21.9656 85.0605 21.8849V18.4238C85.0605 18.3003 84.9758 18.1959 84.8569 18.1674ZM66.3807 18.6327C69.0968 18.0155 71.9886 17.6927 74.9753 17.6594L66.3807 21.3484V18.6279V18.6327ZM67.2829 21.3673L75.2697 17.9347V20.5887C72.5061 20.5982 69.828 20.8594 67.2781 21.3626L67.2829 21.3673ZM75.64 20.5935V17.9395L83.6312 21.3721C81.0867 20.8688 78.4038 20.6124 75.64 20.5982V20.5935ZM84.5336 21.3531L75.9392 17.6641C78.926 17.6974 81.818 18.0202 84.5336 18.6374V21.3579V21.3531Z" fill="#F49D1E"/>
<path d="M13.3125 31.3044V33.213L4.49481 43.7909H13.3125V46.3024H0.672363V44.4556L9.55663 33.8112H0.672363V31.2996H13.3125V31.3044Z" fill="#653D5D"/>
<path d="M27.8189 31.3044H30.5635V39.6937C30.5635 41.6259 29.8749 43.2782 28.5027 44.6503C27.1304 46.0223 25.4684 46.7108 23.5264 46.7108C21.5843 46.7108 19.9223 46.0223 18.55 44.6503C17.1778 43.2782 16.4893 41.6259 16.4893 39.6937V31.3044H19.2576V39.6937C19.2576 40.8663 19.6754 41.8681 20.5111 42.6989C21.3468 43.5298 22.3535 43.9429 23.5264 43.9429C24.6992 43.9429 25.7248 43.5298 26.5606 42.6989C27.3963 41.8681 27.8142 40.8663 27.8142 39.6937V31.3044H27.8189Z" fill="#653D5D"/>
<path d="M50.8011 31.3044V46.3024H48.0566V36.4557L43.4221 42.9363H41.8124L37.178 36.4557V46.3024H34.4097V31.3044H36.575L42.6054 39.7601L48.6548 31.3044H50.8011Z" fill="#653D5D"/>
<path d="M65.9722 31.3044H68.7168V39.6937C68.7168 41.6259 68.0283 43.2782 66.656 44.6503C65.2837 46.0223 63.6218 46.7108 61.6797 46.7108C59.7376 46.7108 58.0757 46.0223 56.7034 44.6503C55.3311 43.2782 54.6426 41.6259 54.6426 39.6937V31.3044H57.4109V39.6937C57.4109 40.8663 57.8288 41.8681 58.6644 42.6989C59.5002 43.5298 60.5069 43.9429 61.6797 43.9429C62.8526 43.9429 63.8782 43.5298 64.7139 42.6989C65.5497 41.8681 65.9675 40.8663 65.9675 39.6937V31.3044H65.9722Z" fill="#653D5D"/>
<path d="M82.777 41.1512L86.6373 46.3024H83.3754L79.9184 41.6687H75.3884V46.3024H72.6201V31.3044H80.4974C81.9415 31.3044 83.1803 31.8124 84.2109 32.8284C85.2415 33.8444 85.7544 35.0694 85.7544 36.4984C85.7544 37.5145 85.4832 38.4355 84.9376 39.2664C84.3912 40.0972 83.6692 40.7239 82.7723 41.156L82.777 41.1512ZM80.4166 39.0052C81.134 39.0052 81.7417 38.7631 82.2399 38.2741C82.7389 37.7898 82.9907 37.1964 82.9907 36.4937C82.9907 35.791 82.7389 35.1975 82.2399 34.7038C81.7371 34.21 81.1293 33.9631 80.4166 33.9631H75.3979V39.0052H80.4166Z" fill="#653D5D"/>
<path d="M100.284 31.3044H103.029V39.6937C103.029 41.6259 102.34 43.2782 100.968 44.6503C99.5958 46.0223 97.9342 46.7108 95.9919 46.7108C94.0497 46.7108 92.388 46.0223 91.0108 44.6503C89.6336 43.2782 88.9497 41.6259 88.9497 39.6937V31.3044H91.7181V39.6937C91.7181 40.8663 92.1362 41.8681 92.9717 42.6989C93.8072 43.5298 94.8145 43.9429 95.9873 43.9429C97.1601 43.9429 98.1852 43.5298 99.0215 42.6989C99.857 41.8681 100.275 40.8663 100.275 39.6937V31.3044H100.284Z" fill="#653D5D"/>
<path d="M113.333 31.3044C115.379 31.3044 117.122 32.0356 118.556 33.4931C119.994 34.9507 120.712 36.7168 120.712 38.7915C120.712 40.8663 119.99 42.6372 118.546 44.0995C117.103 45.5666 115.365 46.2977 113.333 46.2977H106.875V31.2996H113.333V31.3044ZM113.247 43.62C114.548 43.62 115.659 43.1499 116.585 42.2052C117.506 41.2604 117.972 40.1257 117.972 38.7915C117.972 37.4575 117.511 36.3228 116.585 35.3779C115.664 34.4331 114.548 33.9631 113.247 33.9631H109.643V43.62H113.247Z" fill="#653D5D"/>
<path d="M130.973 31.3044L136.96 46.3024H134.169L132.816 42.9316H125.498L124.145 46.3024H121.334L127.34 31.3044H130.968H130.973ZM126.509 40.4248H131.808L129.15 33.7969L126.509 40.4248Z" fill="#653D5D"/>
<path d="M136.98 31.3044H150.242V33.8777H144.985V46.3024H142.241V33.8777H136.985V31.3044H136.98Z" fill="#653D5D"/>
</g>
<defs>
<clipPath id="clip0_1_788">
<rect width="150" height="46.6321" fill="white" transform="translate(0.242188 0.0785522)"/>
</clipPath>
</defs>
</svg>
