<svg width="201" height="68" viewBox="0 0 201 68" fill="none" xmlns="http://www.w3.org/2000/svg">
<g clip-path="url(#clip0_1_613)">
<path d="M24.177 0.805664L0.242188 14.6215V42.2308L7.0775 46.1734L7.03283 18.5753L24.1323 8.69085L41.2317 18.5753V46.1622L48.0671 42.2308V14.5992L24.177 0.805664Z" fill="#F49D1E"/>
<path d="M27.5724 46.1734L24.1548 48.1503L20.7259 46.1846V18.5753L13.8906 22.5178L13.9018 50.116L24.1548 56.0355L34.4077 50.116V22.5178L27.5724 18.5753V46.1734Z" fill="#F49D1E"/>
<path d="M63.7255 14.789L73.1185 38.5339H73.1967L82.3663 14.789H85.9403V41.9962H83.472V18.296H83.3938C83.2709 18.7204 83.1257 19.156 82.9806 19.5804L82.5338 20.7643L82.0982 22.0264L74.2242 41.9962H71.9904L64.0271 22.0264C63.8707 21.669 63.7255 21.2893 63.5692 20.9095C63.4128 20.5298 63.2788 20.0942 63.1559 19.7144L62.698 18.3854H62.6198V41.9962H60.2632V14.789H63.7255Z" fill="#4D4D4D"/>
<path d="M93.1334 42.1303C92.3938 41.9275 91.7025 41.5781 91.1007 41.1028C90.5261 40.6433 90.0639 40.0589 89.7493 39.3939C89.3996 38.6427 89.2276 37.821 89.2467 36.9926C89.2093 36.0029 89.4327 35.0208 89.8945 34.1446C90.3208 33.4149 90.9238 32.8042 91.648 32.3687C92.4475 31.9037 93.314 31.5646 94.2168 31.3635C95.2707 31.12 96.3371 30.9336 97.4111 30.8051C98.3716 30.7046 99.1981 30.6041 99.8682 30.4812C100.427 30.4005 100.974 30.2543 101.499 30.0456C101.868 29.9087 102.187 29.6634 102.415 29.342C102.621 28.9787 102.722 28.5646 102.705 28.1469V27.7672C102.748 27.208 102.66 26.6466 102.449 26.1271C102.238 25.6077 101.909 25.1444 101.488 24.7739C100.459 24.0715 99.2241 23.7334 97.9807 23.8134C94.4886 23.8134 92.6495 25.2691 92.4633 28.1804H90.0844C90.1151 27.3159 90.3188 26.4663 90.6832 25.6817C91.0477 24.8971 91.5656 24.1935 92.2064 23.6124C93.8371 22.3581 95.8733 21.7496 97.9249 21.9036C99.726 21.8126 101.507 22.3148 102.996 23.3332C103.654 23.9057 104.166 24.6267 104.491 25.4366C104.815 26.2465 104.942 27.1219 104.861 27.9906V38.6903C104.833 39.1445 104.964 39.5942 105.229 39.9635C105.348 40.1023 105.495 40.2133 105.661 40.2886C105.827 40.3638 106.008 40.4016 106.19 40.3991C106.323 40.4156 106.458 40.4156 106.592 40.3991C106.755 40.3742 106.915 40.3368 107.072 40.2874H107.184V42.0074C106.973 42.0908 106.757 42.158 106.536 42.2085C106.225 42.2818 105.906 42.3155 105.587 42.309C104.842 42.3494 104.109 42.1104 103.532 41.6389C103.258 41.3606 103.043 41.0305 102.9 40.668C102.756 40.3055 102.686 39.9179 102.694 39.5279V39.1147H102.582C102.274 39.528 101.938 39.9199 101.577 40.2874C101.155 40.7241 100.673 41.0999 100.147 41.4043C99.5298 41.7292 98.8729 41.9732 98.1929 42.1303C97.3723 42.3416 96.5272 42.443 95.6799 42.4318C94.821 42.4557 93.9631 42.3541 93.1334 42.1303ZM98.9301 40.0529C99.6969 39.7639 100.402 39.3319 101.007 38.7796C101.549 38.2705 101.979 37.6544 102.27 36.9703C102.541 36.3269 102.682 35.6359 102.683 34.9376V31.3412C101.962 31.7285 101.186 32.0034 100.382 32.1565C99.4773 32.3464 98.5503 32.5139 97.5898 32.6368C96.6293 32.7596 95.9703 32.8937 95.2667 33.0389C94.619 33.1506 93.9955 33.3735 93.4238 33.6978C92.9079 33.9937 92.48 34.4216 92.1841 34.9376C91.856 35.5633 91.6981 36.2643 91.7262 36.9703C91.7071 37.5639 91.8296 38.1534 92.0836 38.6903C92.3102 39.1305 92.635 39.5126 93.0329 39.8072C93.453 40.0977 93.9281 40.2992 94.429 40.3991C94.9801 40.5134 95.5416 40.5696 96.1044 40.5666C97.0712 40.5868 98.0322 40.4121 98.9301 40.0529Z" fill="#4D4D4D"/>
<path d="M111.204 47.4131C110.595 46.9948 110.08 46.4521 109.695 45.8207C109.31 45.1892 109.063 44.4835 108.971 43.7498H111.204C111.284 44.2785 111.494 44.7791 111.816 45.2061C112.138 45.6332 112.561 45.9733 113.047 46.1957C114.195 46.7225 115.448 46.9785 116.711 46.944C117.554 47.0268 118.406 46.94 119.215 46.6887C120.025 46.4374 120.776 46.0268 121.424 45.4809C121.939 44.9305 122.336 44.2816 122.594 43.5733C122.851 42.865 122.962 42.112 122.921 41.3596V38.2324H122.809C122.161 39.2609 121.291 40.131 120.262 40.7789C119.136 41.4098 117.856 41.7153 116.566 41.6612C115.361 41.6772 114.168 41.4294 113.07 40.9352C112.046 40.4692 111.139 39.7827 110.411 38.9248C109.647 38.0114 109.07 36.9563 108.714 35.8199C108.309 34.5338 108.109 33.192 108.122 31.8438C108.101 30.4039 108.332 28.9715 108.803 27.6108C109.211 26.4687 109.832 25.4149 110.635 24.5059C111.381 23.6869 112.295 23.0392 113.315 22.6072C114.345 22.1787 115.45 21.9585 116.566 21.9594C117.887 21.9069 119.197 22.2323 120.341 22.8976C121.342 23.5249 122.186 24.373 122.809 25.3771H122.921V22.328H125.244V41.2368C125.334 43.1656 124.682 45.0557 123.423 46.5196C122.55 47.3504 121.512 47.99 120.378 48.3976C119.243 48.8053 118.036 48.9721 116.834 48.8874C114.863 49.0024 112.906 48.486 111.249 47.4131M121.558 37.4729C122.668 35.7831 123.216 33.7854 123.122 31.7656C123.134 30.6852 123.006 29.6078 122.742 28.5602C122.515 27.6602 122.113 26.8138 121.558 26.0695C121.03 25.3782 120.345 24.823 119.559 24.4501C118.682 24.0535 117.728 23.8588 116.767 23.8804C115.888 23.84 115.013 24.0178 114.22 24.3978C113.427 24.7778 112.74 25.3483 112.221 26.0584C111.065 27.7545 110.496 29.7826 110.601 31.8326C110.596 32.8795 110.724 33.9228 110.981 34.9376C111.201 35.8213 111.579 36.6577 112.098 37.4059C112.596 38.0962 113.251 38.6588 114.008 39.0477C114.848 39.4595 115.775 39.6625 116.711 39.6396C117.631 39.7053 118.554 39.5418 119.396 39.1637C120.238 38.7856 120.973 38.2047 121.536 37.4729" fill="#4D4D4D"/>
<path d="M133.419 41.7058C132.309 41.2133 131.327 40.4719 130.549 39.5391C129.753 38.5735 129.154 37.4619 128.784 36.2666C128.362 34.9456 128.155 33.5655 128.17 32.1788C128.16 30.7899 128.379 29.4088 128.818 28.0911C129.216 26.8991 129.829 25.79 130.627 24.8186C131.391 23.8948 132.353 23.1543 133.441 22.6518C134.603 22.117 135.87 21.8498 137.149 21.87C138.53 21.8205 139.899 22.1283 141.126 22.7635C142.184 23.3366 143.086 24.1612 143.75 25.1648C144.443 26.2094 144.928 27.3772 145.18 28.6048C145.463 29.9187 145.605 31.2591 145.604 32.6033H130.605C130.627 33.6513 130.788 34.6917 131.085 35.697C131.351 36.5948 131.775 37.4381 132.336 38.1877C132.884 38.9039 133.597 39.4784 134.413 39.863C135.328 40.2916 136.329 40.5019 137.339 40.4773C138.722 40.5642 140.087 40.1343 141.17 39.271C142.107 38.4111 142.775 37.2976 143.091 36.0656H145.325C144.97 37.8725 144.037 39.515 142.667 40.7453C141.15 41.9639 139.238 42.5838 137.295 42.4877C135.947 42.5128 134.609 42.2461 133.374 41.7058M142.667 28.0129C142.435 27.2061 142.056 26.4489 141.55 25.7791C141.06 25.1568 140.433 24.656 139.718 24.316C138.895 23.944 137.997 23.7645 137.094 23.7911C136.184 23.7728 135.281 23.9519 134.447 24.316C133.699 24.6597 133.033 25.1584 132.492 25.7791C131.937 26.441 131.505 27.1978 131.219 28.0129C130.893 28.8981 130.683 29.8215 130.593 30.7604H143.069C143.05 29.8379 142.911 28.9218 142.656 28.0352" fill="#4D4D4D"/>
<path d="M150.887 22.328V25.3771H151.021C151.694 24.3737 152.583 23.534 153.623 22.9199C154.835 22.2388 156.21 21.9027 157.599 21.9482C159.235 21.8945 160.831 22.461 162.067 23.5342C162.674 24.1182 163.146 24.8274 163.451 25.6125C163.755 26.3975 163.885 27.2395 163.832 28.0799V42.0409H161.475V28.2586C161.526 27.6557 161.445 27.049 161.239 26.4802C161.032 25.9114 160.705 25.3941 160.28 24.9638C159.345 24.2275 158.173 23.8581 156.985 23.9251C156.181 23.9177 155.382 24.0577 154.629 24.3384C153.919 24.5913 153.261 24.9696 152.685 25.4552C152.119 25.9604 151.667 26.5802 151.359 27.2734C151.051 27.9666 150.894 28.7174 150.898 29.476V41.9963H148.542V22.328H150.887Z" fill="#4D4D4D"/>
<path d="M169.908 41.3261C169.539 40.9832 169.255 40.56 169.077 40.0892C168.898 39.6185 168.831 39.113 168.88 38.6121V24.2602H165.909V22.328H168.891V16.2745H171.248V22.328H174.9V24.2602H171.237V38.2324C171.208 38.4964 171.236 38.7635 171.319 39.0158C171.402 39.2681 171.537 39.4999 171.717 39.6955C172.131 39.9937 172.638 40.1361 173.147 40.0976C173.432 40.0966 173.717 40.0629 173.995 39.997C174.237 39.9505 174.472 39.8794 174.699 39.7848H174.822V41.8064C174.12 42.0413 173.384 42.1583 172.644 42.1526C171.664 42.2009 170.697 41.9089 169.908 41.3261Z" fill="#4D4D4D"/>
<path d="M181.881 41.7059C180.771 41.2077 179.786 40.4674 178.999 39.5391C178.193 38.5753 177.583 37.4638 177.201 36.2667C176.35 33.608 176.35 30.7498 177.201 28.0911C177.583 26.894 178.193 25.7825 178.999 24.8186C179.786 23.8904 180.771 23.1501 181.881 22.6519C183.086 22.136 184.384 21.8701 185.695 21.8701C187.006 21.8701 188.304 22.136 189.509 22.6519C190.604 23.1551 191.573 23.8952 192.346 24.8186C193.157 25.7775 193.765 26.8908 194.133 28.0911C194.952 30.7547 194.952 33.6031 194.133 36.2667C193.765 37.467 193.157 38.5803 192.346 39.5391C191.569 40.4639 190.596 41.2041 189.498 41.7059C188.293 42.2217 186.995 42.4877 185.684 42.4877C184.373 42.4877 183.075 42.2217 181.87 41.7059M188.571 39.863C189.399 39.4416 190.115 38.8291 190.66 38.076C191.245 37.2791 191.68 36.3821 191.944 35.429C192.495 33.3049 192.495 31.0753 191.944 28.9511C191.688 27.9957 191.261 27.0949 190.682 26.2929C190.137 25.5399 189.421 24.9273 188.593 24.5059C187.685 24.0795 186.693 23.8584 185.689 23.8584C184.686 23.8584 183.694 24.0795 182.786 24.5059C181.962 24.9336 181.247 25.545 180.697 26.2929C180.11 27.0916 179.678 27.9933 179.424 28.9511C178.858 31.0734 178.858 33.3068 179.424 35.429C179.678 36.3869 180.11 37.2885 180.697 38.0872C181.247 38.8351 181.962 39.4466 182.786 39.8742C183.694 40.3006 184.686 40.5217 185.689 40.5217C186.693 40.5217 187.685 40.3006 188.593 39.8742" fill="#4D4D4D"/>
<path d="M197.774 25.5893C197.441 25.604 197.108 25.5485 196.798 25.4262C196.487 25.304 196.206 25.1178 195.972 24.8797C195.738 24.6417 195.557 24.3571 195.44 24.0445C195.324 23.7319 195.274 23.3982 195.295 23.0651C195.276 22.7315 195.327 22.3976 195.444 22.0847C195.561 21.7717 195.742 21.4865 195.975 21.2471C196.208 21.0077 196.488 20.8193 196.798 20.6939C197.108 20.5685 197.44 20.5088 197.774 20.5186C198.109 20.5052 198.442 20.5625 198.753 20.6868C199.064 20.8111 199.345 20.9996 199.578 21.2399C199.811 21.4803 199.99 21.7671 200.105 22.0816C200.219 22.3961 200.266 22.7313 200.242 23.0651C200.261 23.3968 200.211 23.7287 200.094 24.0398C199.977 24.3508 199.797 24.6341 199.565 24.8716C199.333 25.1091 199.054 25.2956 198.745 25.4192C198.437 25.5427 198.106 25.6007 197.774 25.5893ZM197.774 20.809C197.484 20.802 197.195 20.8558 196.927 20.967C196.659 21.0783 196.417 21.2445 196.217 21.455C196.017 21.6655 195.864 21.9155 195.766 22.189C195.669 22.4625 195.63 22.7533 195.652 23.0428C195.652 23.6056 195.876 24.1454 196.274 24.5433C196.672 24.9413 197.211 25.1649 197.774 25.1649C198.337 25.1649 198.877 24.9413 199.275 24.5433C199.673 24.1454 199.896 23.6056 199.896 23.0428C199.918 22.7533 199.879 22.4625 199.782 22.189C199.684 21.9155 199.531 21.6655 199.331 21.455C199.131 21.2445 198.889 21.0783 198.621 20.967C198.353 20.8558 198.064 20.802 197.774 20.809ZM198.5 24.4166L197.662 23.2103H197.394V24.3272H196.914V21.5685H197.763C198.344 21.5685 198.746 21.8589 198.746 22.3838C198.754 22.5582 198.702 22.73 198.598 22.8703C198.494 23.0107 198.345 23.111 198.176 23.1545L198.98 24.2714L198.5 24.4166ZM197.763 22.0264H197.394V22.8529H197.741C198.053 22.8529 198.254 22.7189 198.254 22.4397C198.254 22.1605 198.076 22.0264 197.763 22.0264Z" fill="#4D4D4D"/>
<path d="M62.7876 60.8939L61.5926 64.2445C61.5873 64.2731 61.572 64.2989 61.5496 64.3173C61.5271 64.3357 61.4988 64.3455 61.4697 64.3451H60.3528C60.2635 64.3451 60.23 64.3004 60.2523 64.211L63.8487 54.1591C63.8487 54.0921 63.8487 54.0251 63.9157 53.9357C63.9291 53.7871 63.9291 53.6376 63.9157 53.489C63.9138 53.4768 63.9148 53.4644 63.9186 53.4526C63.9224 53.4409 63.9289 53.4303 63.9376 53.4216C63.9463 53.4129 63.957 53.4063 63.9687 53.4025C63.9804 53.3987 63.9929 53.3977 64.005 53.3996H65.6133C65.6382 53.3995 65.6622 53.4085 65.6807 53.425C65.6993 53.4415 65.7111 53.4643 65.7139 53.489L69.5894 64.1887C69.5894 64.2669 69.5894 64.3004 69.5224 64.3004H68.372C68.3446 64.3014 68.3174 64.2945 68.2937 64.2807C68.27 64.2669 68.2507 64.2466 68.238 64.2222L67.0429 60.8716L62.7876 60.8939ZM66.5962 59.6207C66.5068 59.3638 66.384 58.9952 66.2165 58.5038C66.0489 58.0123 65.8926 57.5656 65.7139 57.0742C65.5352 56.5827 65.3788 56.1025 65.2224 55.6334C65.0661 55.1643 64.9544 54.7957 64.8762 54.5165C64.8092 54.7734 64.7087 55.1085 64.5858 55.4994C64.463 55.8903 64.3178 56.3035 64.1502 56.7614L63.6588 58.1799C63.4913 58.6713 63.3237 59.1404 63.1785 59.5872L66.5962 59.6207Z" fill="#4D4D4D"/>
<path d="M71.0522 58.1687C71.0522 58.0347 71.0522 57.8671 71.0522 57.6996C71.0522 57.5321 71.0522 57.3534 71.0522 57.1859C71.0522 57.0183 71.0522 56.862 71.0522 56.7279C71.0522 56.5939 71.0522 56.4711 71.0522 56.4152C71.0522 56.3594 71.0522 56.3147 71.1416 56.3147H72.1691C72.2006 56.3149 72.2314 56.3245 72.2573 56.3425C72.2832 56.3604 72.3031 56.3858 72.3143 56.4152C72.3265 56.5228 72.3265 56.6315 72.3143 56.7391C72.3143 56.8843 72.3143 57.0518 72.3143 57.2305C72.6356 56.8807 73.0255 56.6009 73.4599 56.4088C73.8942 56.2166 74.3635 56.1161 74.8385 56.1136C75.1485 56.1157 75.4567 56.1608 75.7543 56.2477C76.0745 56.3385 76.369 56.5029 76.6143 56.7279C76.9243 57.0143 77.1617 57.3703 77.3068 57.7666C77.4927 58.278 77.5799 58.8199 77.5637 59.3638V64.2445C77.5637 64.3227 77.5637 64.3562 77.4408 64.3562H76.3239C76.2457 64.3562 76.2122 64.3562 76.2122 64.2222V59.4643C76.2346 58.9275 76.0902 58.3968 75.799 57.9453C75.6511 57.7482 75.4559 57.5916 75.2313 57.4901C75.0068 57.3885 74.7603 57.3454 74.5146 57.3646C74.1263 57.3644 73.7436 57.4563 73.3977 57.6326C73.0472 57.8161 72.736 58.0665 72.4819 58.3697V64.211C72.4819 64.2892 72.4818 64.3227 72.3813 64.3227H71.1416C71.0746 64.3227 71.0522 64.3227 71.0522 64.211V58.1687Z" fill="#4D4D4D"/>
<path d="M85.1924 60.8939L84.0085 64.2445C84.0009 64.274 83.9835 64.3 83.9591 64.3183C83.9347 64.3366 83.9049 64.346 83.8744 64.345H82.7576C82.6682 64.345 82.6459 64.345 82.6682 64.211L86.2534 54.1591C86.2534 54.0921 86.2534 54.0251 86.3204 53.9357C86.3353 53.7872 86.3353 53.6375 86.3204 53.4889C86.3204 53.4889 86.3204 53.3996 86.3986 53.3996H88.0181C88.0181 53.3996 88.0963 53.3996 88.1074 53.4889L91.983 64.1887C91.983 64.2669 91.983 64.3004 91.916 64.3004H90.7098C90.6823 64.3013 90.6551 64.2945 90.6314 64.2807C90.6077 64.2668 90.5884 64.2466 90.5757 64.2222L89.3807 60.8715L85.1924 60.8939ZM89.0009 59.6206C88.9116 59.3637 88.7887 58.9952 88.6212 58.5037L88.1298 57.0741C87.9511 56.5715 87.7835 56.1025 87.6272 55.6334C87.4708 55.1643 87.3591 54.7957 87.2809 54.5165C87.2139 54.7734 87.1134 55.1084 86.9905 55.4993C86.8677 55.8902 86.7225 56.3035 86.5661 56.7614C86.4098 57.2193 86.2311 57.6884 86.0635 58.1798C85.896 58.6713 85.7396 59.1404 85.5833 59.5871L89.0009 59.6206Z" fill="#4D4D4D"/>
<path d="M96.875 64.4679C96.3321 64.4707 95.7925 64.3839 95.2779 64.211C94.7864 64.0507 94.3374 63.7817 93.9642 63.424C93.591 63.0663 93.3033 62.629 93.1223 62.1448C92.9005 61.5758 92.7942 60.9683 92.8096 60.3578C92.8022 59.7842 92.9085 59.2148 93.1223 58.6825C93.3451 58.1824 93.6639 57.7308 94.0605 57.3534C94.4709 56.9691 94.9528 56.6693 95.4789 56.471C96.0644 56.2516 96.6853 56.1418 97.3106 56.1471C97.504 56.1337 97.698 56.1337 97.8914 56.1471L98.3493 56.2142V52.6066C98.3475 52.593 98.3488 52.5791 98.3532 52.5661C98.3576 52.5531 98.3649 52.5412 98.3747 52.5315C98.3844 52.5218 98.3962 52.5144 98.4093 52.51C98.4223 52.5056 98.4362 52.5043 98.4498 52.5061H99.6449C99.7119 52.5061 99.7454 52.5061 99.7454 52.5843V63.351C99.7348 63.4886 99.7348 63.6267 99.7454 63.7643C99.7465 63.7889 99.7395 63.8132 99.7253 63.8334C99.7112 63.8536 99.6908 63.8686 99.6672 63.876C99.2195 64.0904 98.7468 64.248 98.26 64.3451C97.8041 64.4361 97.3397 64.4773 96.875 64.4679ZM98.327 57.4762C98.1735 57.4129 98.0118 57.3715 97.8467 57.3534C97.6498 57.3355 97.4517 57.3355 97.2548 57.3534C96.8238 57.3481 96.3957 57.4239 95.9927 57.5768C95.6315 57.7142 95.3039 57.9275 95.0322 58.2022C94.7658 58.4742 94.5569 58.7971 94.4179 59.1516C94.2779 59.5306 94.2061 59.9314 94.2057 60.3355C94.1927 60.8044 94.2724 61.2712 94.4402 61.7092C94.5696 62.0464 94.7734 62.35 95.0364 62.5976C95.2993 62.8451 95.6148 63.0301 95.9592 63.1388C96.298 63.2502 96.6524 63.3067 97.009 63.3064C97.2358 63.3226 97.4635 63.3226 97.6903 63.3064C97.9106 63.2878 98.1261 63.2311 98.327 63.1388V57.4762Z" fill="#4D4D4D"/>
<path d="M105.229 56.1471C105.771 56.1362 106.308 56.2429 106.804 56.4598C107.232 56.671 107.612 56.9675 107.921 57.331C108.253 57.7176 108.508 58.1653 108.669 58.6489C108.851 59.1809 108.942 59.7397 108.937 60.3019C108.946 60.8836 108.852 61.4622 108.658 62.0107C108.491 62.4992 108.225 62.9478 107.876 63.3287C107.551 63.6975 107.146 63.9878 106.692 64.1775C106.231 64.3768 105.732 64.4758 105.229 64.4679C104.642 64.4829 104.06 64.3565 103.532 64.0993C103.071 63.8753 102.666 63.5509 102.348 63.15C102.04 62.7449 101.809 62.2868 101.666 61.7985C101.52 61.3094 101.444 60.8015 101.443 60.2907C101.439 59.7359 101.53 59.1845 101.711 58.6601C101.872 58.1704 102.13 57.7183 102.471 57.331C102.798 56.9512 103.206 56.6497 103.666 56.4487C104.159 56.2354 104.692 56.1325 105.229 56.1471ZM105.229 57.331C104.897 57.3295 104.569 57.402 104.269 57.5432C103.981 57.6865 103.729 57.8926 103.532 58.1463C103.318 58.4273 103.159 58.7454 103.062 59.0845C102.937 59.4703 102.877 59.8741 102.884 60.2796C102.862 60.6776 102.9 61.0765 102.995 61.4635C103.095 61.8085 103.253 62.1336 103.465 62.424C103.663 62.6972 103.923 62.9193 104.224 63.0718C104.524 63.2002 104.847 63.2664 105.173 63.2664C105.5 63.2664 105.823 63.2002 106.123 63.0718C106.411 62.9487 106.667 62.7616 106.871 62.5245C107.1 62.2539 107.278 61.9435 107.396 61.6087C107.539 61.1805 107.607 60.7309 107.597 60.2796C107.595 59.9027 107.546 59.5276 107.452 59.1627C107.368 58.8235 107.224 58.502 107.027 58.2134C106.821 57.9324 106.549 57.7055 106.236 57.5519C105.923 57.3983 105.578 57.3225 105.229 57.331Z" fill="#4D4D4D"/>
<path d="M111.93 52.5061H112.02C112.02 52.5061 112.02 52.5061 112.02 52.5955V56.4599C112.59 56.2413 113.196 56.1314 113.807 56.136C114.338 56.1309 114.865 56.2296 115.359 56.4264C115.805 56.6093 116.208 56.8832 116.543 57.2305C116.871 57.5844 117.129 57.9975 117.302 58.4479C117.683 59.59 117.64 60.8312 117.18 61.9438C116.938 62.4789 116.588 62.958 116.152 63.351C115.728 63.731 115.23 64.0199 114.689 64.1999C114.159 64.3734 113.605 64.4638 113.047 64.4679C112.675 64.4945 112.302 64.4945 111.93 64.4679C111.55 64.4231 111.175 64.337 110.813 64.211C110.746 64.211 110.713 64.211 110.713 64.0658V52.6066C110.713 52.5396 110.713 52.5061 110.836 52.5061H111.93ZM116.186 60.1232C116.222 59.3855 115.975 58.6619 115.493 58.1017C115.253 57.8493 114.96 57.6519 114.637 57.5227C114.313 57.3936 113.965 57.3358 113.617 57.3534C113.318 57.3491 113.019 57.3715 112.723 57.4204C112.49 57.471 112.262 57.542 112.042 57.6326V63.217C112.204 63.274 112.373 63.3079 112.545 63.3175C112.742 63.3298 112.939 63.3298 113.137 63.3175C113.517 63.3181 113.895 63.2539 114.253 63.1276C114.613 62.9969 114.944 62.7956 115.225 62.5357C115.523 62.2542 115.755 61.9112 115.906 61.5305C116.109 61.0884 116.22 60.6095 116.23 60.1232H116.186Z" fill="#4D4D4D"/>
<path d="M120.296 60.4806C120.291 60.8596 120.347 61.2368 120.463 61.5975C120.57 61.9283 120.745 62.2328 120.977 62.491C121.219 62.7464 121.512 62.948 121.837 63.083C122.225 63.2331 122.639 63.3052 123.055 63.2952C123.43 63.3015 123.805 63.264 124.171 63.1835C124.516 63.1175 124.851 63.0048 125.165 62.8484C125.165 62.8484 125.255 62.8484 125.255 62.9154V63.8536C125.257 63.8871 125.25 63.9206 125.234 63.9502C125.218 63.9799 125.195 64.0044 125.165 64.0211C124.853 64.1751 124.523 64.2913 124.183 64.3674C123.743 64.4648 123.293 64.5098 122.842 64.5014C122.22 64.5186 121.602 64.3965 121.033 64.144C120.566 63.9301 120.157 63.6086 119.838 63.2058C119.533 62.8144 119.309 62.3664 119.179 61.8879C119.041 61.4009 118.969 60.8975 118.967 60.3913C118.966 59.8376 119.053 59.2872 119.224 58.7606C119.373 58.2686 119.616 57.8098 119.938 57.4092C120.243 57.0295 120.623 56.7176 121.055 56.4934C121.536 56.2638 122.064 56.1491 122.597 56.1583C123.114 56.1442 123.628 56.2553 124.093 56.4822C124.476 56.6751 124.811 56.9496 125.076 57.2863C125.337 57.6166 125.527 57.9967 125.635 58.4032C125.742 58.7658 125.799 59.1418 125.802 59.5201C125.802 59.7211 125.802 59.8998 125.802 60.045C125.814 60.1527 125.814 60.2613 125.802 60.3689C125.802 60.436 125.802 60.4695 125.69 60.4695C125.469 60.5026 125.245 60.5213 125.02 60.5253H120.396L120.296 60.4806ZM123.378 59.4643H124.216H124.462C124.468 59.4348 124.468 59.4044 124.462 59.3749V59.2744C124.457 59.0895 124.431 58.9058 124.384 58.7271C124.325 58.4941 124.223 58.2742 124.082 58.0793C123.92 57.8615 123.714 57.6791 123.479 57.5432C123.186 57.3807 122.853 57.3033 122.518 57.3198C122.211 57.3118 121.906 57.3729 121.625 57.4985C121.372 57.6129 121.148 57.7805 120.966 57.99C120.781 58.1935 120.634 58.4279 120.53 58.6824C120.431 58.9451 120.363 59.2189 120.329 59.4978L123.378 59.4643Z" fill="#4D4D4D"/>
<path d="M138.624 64.01C138.624 64.1105 138.624 64.1664 138.546 64.1775C138.252 64.3188 137.94 64.4167 137.619 64.4679C137.203 64.5149 136.786 64.5373 136.368 64.5349C135.678 64.5319 134.993 64.4265 134.335 64.2222C133.677 64.0192 133.068 63.6806 132.548 63.2282C132.003 62.7487 131.572 62.1534 131.286 61.4858C130.939 60.6671 130.772 59.7836 130.795 58.8947C130.788 58.1305 130.928 57.3722 131.208 56.6609C131.467 55.9908 131.867 55.3845 132.382 54.8834C132.896 54.3822 133.513 53.998 134.19 53.757C134.926 53.465 135.71 53.3098 136.502 53.2991C136.95 53.2903 137.398 53.3164 137.842 53.3773C138.107 53.4145 138.366 53.4858 138.613 53.5895C138.639 53.5994 138.661 53.6182 138.676 53.6426C138.69 53.667 138.695 53.6956 138.691 53.7235V54.8404C138.691 54.9186 138.691 54.9409 138.579 54.9186C137.914 54.6303 137.192 54.5003 136.468 54.5388C135.862 54.5295 135.259 54.6356 134.692 54.8516C134.182 55.045 133.716 55.3373 133.319 55.7116C132.93 56.0966 132.629 56.5615 132.436 57.0742C132.216 57.6438 132.106 58.2503 132.112 58.8612C132.087 59.6003 132.236 60.335 132.548 61.0056C132.787 61.5109 133.134 61.9576 133.564 62.3146C133.995 62.6715 134.498 62.93 135.039 63.0718C135.493 63.202 135.962 63.2734 136.435 63.284C136.808 63.2871 137.181 63.2647 137.552 63.217C137.877 63.1825 138.197 63.1036 138.501 62.9825C138.568 62.9825 138.59 62.9825 138.59 63.0495L138.624 64.01Z" fill="#4D4D4D"/>
<path d="M143.471 56.1471C144.012 56.1362 144.55 56.2429 145.046 56.4599C145.474 56.671 145.854 56.9675 146.163 57.331C146.495 57.7177 146.749 58.1653 146.911 58.649C147.093 59.1809 147.184 59.7398 147.179 60.3019C147.188 60.8836 147.094 61.4622 146.9 62.0108C146.733 62.4992 146.467 62.9478 146.118 63.3287C145.793 63.6976 145.388 63.9878 144.934 64.1775C144.457 64.3924 143.938 64.4992 143.415 64.4903C142.828 64.5066 142.245 64.3801 141.718 64.1217C141.257 63.8976 140.852 63.5732 140.534 63.1723C140.226 62.7672 139.995 62.3092 139.852 61.8209C139.706 61.3317 139.63 60.8239 139.629 60.3131C139.625 59.7583 139.716 59.2069 139.897 58.6825C140.059 58.1954 140.313 57.7441 140.645 57.3534C140.978 56.9788 141.385 56.6782 141.84 56.471C142.353 56.2432 142.91 56.1326 143.471 56.1471ZM143.404 57.331C143.076 57.3312 142.752 57.4036 142.455 57.5432C142.167 57.6865 141.915 57.8926 141.718 58.1464C141.505 58.4293 141.343 58.7466 141.237 59.0845C141.014 59.8618 141.014 60.6862 141.237 61.4635C141.337 61.8085 141.495 62.1336 141.706 62.424C141.904 62.6973 142.165 62.9193 142.466 63.0718C142.766 63.2002 143.089 63.2665 143.415 63.2665C143.742 63.2665 144.065 63.2002 144.365 63.0718C144.652 62.9488 144.908 62.7616 145.113 62.5245C145.342 62.2539 145.52 61.9435 145.638 61.6087C145.777 61.1798 145.841 60.7302 145.828 60.2796C145.829 59.9032 145.784 59.5281 145.694 59.1627C145.61 58.8236 145.466 58.5021 145.269 58.2134C145.063 57.9126 144.783 57.6688 144.457 57.5048C144.131 57.3408 143.769 57.2618 143.404 57.2752V57.331Z" fill="#4D4D4D"/>
<path d="M149.044 64.3227C148.977 64.3227 148.944 64.3227 148.944 64.211V58.0458C148.944 57.6773 148.944 57.3534 148.944 57.0742C148.944 56.7949 148.944 56.5604 148.944 56.4152C148.944 56.27 148.944 56.3147 149.033 56.3147H150.072C150.099 56.3137 150.127 56.3205 150.15 56.3344C150.174 56.3482 150.193 56.3685 150.206 56.3929C150.235 56.5139 150.254 56.6372 150.262 56.7614C150.262 56.9066 150.262 57.0518 150.262 57.1858C150.916 56.5288 151.803 56.1557 152.73 56.1471C153.179 56.1112 153.629 56.206 154.025 56.42C154.422 56.6341 154.748 56.9582 154.964 57.3534C155.314 57.0105 155.713 56.7207 156.148 56.4934C156.632 56.2498 157.169 56.1308 157.711 56.1471C158.029 56.1471 158.345 56.1923 158.65 56.2812C158.966 56.3833 159.256 56.5551 159.498 56.7838C159.778 57.0538 159.995 57.3816 160.135 57.7443C160.315 58.2414 160.398 58.7683 160.381 59.2967V64.2222C160.381 64.2892 160.381 64.3227 160.269 64.3227H159.152C159.074 64.3227 159.04 64.3227 159.04 64.211V59.3973C159.054 58.8875 158.914 58.3854 158.638 57.9565C158.492 57.7573 158.297 57.5985 158.072 57.495C157.848 57.3915 157.601 57.3466 157.354 57.3645C156.967 57.3626 156.584 57.4505 156.237 57.6214C155.895 57.7932 155.591 58.0326 155.344 58.3251C155.344 58.4256 155.344 58.5708 155.344 58.7718C155.344 58.9729 155.344 59.1851 155.344 59.3749V64.211C155.344 64.2892 155.344 64.3227 155.232 64.3227H154.115C154.1 64.3245 154.085 64.3229 154.07 64.3179C154.056 64.3129 154.043 64.3047 154.032 64.294C154.021 64.2832 154.013 64.2702 154.008 64.2558C154.003 64.2414 154.002 64.2261 154.003 64.211V59.3414C154.035 58.8228 153.885 58.3094 153.579 57.8895C153.431 57.713 153.244 57.5736 153.033 57.4824C152.821 57.3913 152.591 57.3509 152.362 57.3645C151.999 57.3607 151.641 57.437 151.312 57.5879C150.955 57.7625 150.633 58.001 150.362 58.2916V64.2222C150.364 64.2358 150.363 64.2497 150.358 64.2627C150.354 64.2758 150.347 64.2876 150.337 64.2973C150.327 64.3071 150.315 64.3144 150.302 64.3188C150.289 64.3232 150.275 64.3246 150.262 64.3227H149.044Z" fill="#4D4D4D"/>
<path d="M165.73 56.1472C166.285 56.1383 166.836 56.2408 167.35 56.4487C167.81 56.6299 168.225 56.908 168.567 57.264C168.9 57.6184 169.159 58.0362 169.327 58.4926C169.499 58.9882 169.586 59.5093 169.584 60.0339C169.6 60.7111 169.463 61.3833 169.182 61.9996C168.918 62.5421 168.536 63.019 168.065 63.3957C167.616 63.7635 167.1 64.0405 166.546 64.211C165.992 64.3977 165.411 64.492 164.826 64.4903L164.424 64.4679H164.055V67.7627C164.057 67.7759 164.056 67.7893 164.052 67.8021C164.048 67.8149 164.042 67.8268 164.034 67.8372C164.025 67.8476 164.015 67.8563 164.003 67.8626C163.992 67.869 163.979 67.873 163.966 67.8744H163.631H163.251H162.927H162.771C162.715 67.8744 162.681 67.8744 162.681 67.7739V57.264C162.681 57.1077 162.681 56.9848 162.681 56.8731C162.675 56.8629 162.672 56.8514 162.672 56.8396C162.672 56.8279 162.675 56.8163 162.681 56.8061C162.972 56.6944 163.374 56.5604 163.91 56.3929C164.501 56.2193 165.115 56.1365 165.73 56.1472ZM165.541 57.3534C165.271 57.3514 165.002 57.3738 164.736 57.4204C164.489 57.4599 164.246 57.5235 164.01 57.6103V63.1947C164.159 63.2387 164.313 63.265 164.468 63.2729H164.949C165.328 63.2681 165.704 63.2079 166.065 63.0942C166.441 62.9656 166.789 62.7687 167.093 62.5134C167.407 62.2384 167.658 61.8995 167.83 61.5194C168.022 61.0716 168.117 60.5881 168.109 60.1009C168.145 59.3653 167.901 58.6435 167.428 58.0794C167.182 57.8331 166.886 57.6412 166.561 57.5162C166.236 57.3911 165.888 57.3357 165.541 57.3534Z" fill="#4D4D4D"/>
<path d="M176.966 62.9266V63.3511C176.955 63.4774 176.955 63.6044 176.966 63.7308C176.972 63.741 176.975 63.7525 176.975 63.7643C176.975 63.7761 176.972 63.7876 176.966 63.7978C176.455 64.0608 175.91 64.2525 175.347 64.3674C174.865 64.4654 174.375 64.5141 173.884 64.5126C173.472 64.5157 173.062 64.4592 172.666 64.3451C172.314 64.2453 171.984 64.0784 171.694 63.8537C171.42 63.641 171.202 63.3651 171.058 63.0495C170.897 62.6994 170.817 62.3177 170.823 61.9326C170.811 61.5402 170.912 61.1524 171.114 60.8157C171.309 60.4973 171.577 60.2295 171.896 60.0339C172.238 59.8142 172.616 59.6554 173.012 59.5648C173.487 59.469 173.969 59.4203 174.453 59.4196H175.19H175.592V59.0287C175.588 58.8666 175.566 58.7055 175.525 58.5485C175.477 58.352 175.386 58.1687 175.257 58.0124C175.109 57.8217 174.917 57.6687 174.699 57.5656C174.393 57.4304 174.061 57.3655 173.727 57.3757C173.351 57.3751 172.976 57.4201 172.61 57.5098C172.277 57.5917 171.955 57.7116 171.65 57.8672C171.572 57.8672 171.527 57.8672 171.527 57.789V56.7838C171.528 56.7554 171.537 56.728 171.553 56.7044C171.569 56.6808 171.591 56.6619 171.616 56.6498C171.972 56.4839 172.347 56.3638 172.733 56.2924C173.148 56.2019 173.571 56.157 173.995 56.1583C174.462 56.1445 174.926 56.2282 175.358 56.404C175.714 56.5532 176.031 56.7825 176.285 57.0742C176.527 57.3614 176.706 57.6963 176.81 58.057C176.924 58.445 176.98 58.8477 176.977 59.2521L176.966 62.9266ZM175.592 60.503C175.445 60.4754 175.296 60.4568 175.146 60.4472H174.498C173.879 60.4058 173.26 60.5372 172.711 60.8269C172.523 60.9443 172.37 61.1097 172.268 61.3061C172.166 61.5025 172.118 61.7227 172.13 61.9438C172.13 62.1308 172.164 62.3163 172.231 62.4911C172.299 62.674 172.415 62.8358 172.566 62.9601C172.746 63.1098 172.955 63.2202 173.18 63.284C173.476 63.377 173.786 63.4186 174.096 63.4069C174.608 63.4146 175.117 63.3196 175.592 63.1277V60.503Z" fill="#4D4D4D"/>
<path d="M179.278 58.1687C179.278 58.0347 179.278 57.8671 179.278 57.6996C179.278 57.5321 179.278 57.3534 179.278 57.1859C179.278 57.0183 179.278 56.862 179.278 56.7279C179.287 56.6239 179.287 56.5192 179.278 56.4152C179.276 56.4016 179.278 56.3877 179.282 56.3747C179.286 56.3616 179.294 56.3498 179.304 56.34C179.313 56.3303 179.325 56.323 179.338 56.3186C179.351 56.3142 179.365 56.3128 179.379 56.3147H180.395C180.428 56.3141 180.461 56.3234 180.488 56.3413C180.516 56.3592 180.538 56.3849 180.551 56.4152C180.562 56.5229 180.562 56.6314 180.551 56.7391C180.551 56.8843 180.551 57.0518 180.607 57.2305C180.927 56.8821 181.315 56.6031 181.748 56.411C182.18 56.2188 182.647 56.1176 183.12 56.1136C183.43 56.1157 183.738 56.1608 184.036 56.2477C184.359 56.3402 184.657 56.5044 184.907 56.7279C185.193 56.9996 185.414 57.3315 185.555 57.6996C185.741 58.211 185.828 58.7529 185.812 59.2968V64.1775C185.812 64.2557 185.812 64.2892 185.7 64.2892H184.583C184.505 64.2892 184.472 64.2892 184.472 64.1552V59.4643C184.499 58.9269 184.355 58.3947 184.058 57.9453C183.911 57.7482 183.715 57.5916 183.491 57.4901C183.266 57.3885 183.02 57.3454 182.774 57.3646C182.386 57.3657 182.003 57.4575 181.657 57.6326C181.307 57.8161 180.995 58.0665 180.741 58.3697V64.211C180.741 64.2892 180.741 64.3227 180.652 64.3227H179.479C179.412 64.3227 179.379 64.3227 179.379 64.211L179.278 58.1687Z" fill="#4D4D4D"/>
<path d="M188.28 56.3147C188.305 56.3136 188.329 56.3206 188.349 56.3348C188.37 56.3489 188.385 56.3693 188.392 56.3929C188.738 57.3087 189.029 58.1129 189.297 58.8053C189.565 59.4978 189.777 60.0898 189.956 60.5924C190.134 61.095 190.302 61.5194 190.414 61.8544L190.67 62.6362C190.927 61.8879 191.24 61.0056 191.597 60.0116C191.955 59.0175 192.39 57.7778 192.893 56.3929C192.906 56.3685 192.925 56.3482 192.949 56.3344C192.972 56.3205 193 56.3137 193.027 56.3147H194.144C194.222 56.3147 194.244 56.3147 194.211 56.4264C193.898 57.3199 193.563 58.2469 193.206 59.2074C192.848 60.1679 192.48 61.1285 192.089 62.1113C191.698 63.0942 191.307 64.0435 190.905 65.004C190.503 65.9646 190.112 66.8692 189.71 67.7516C189.693 67.7849 189.668 67.813 189.636 67.8327C189.605 67.8524 189.568 67.863 189.531 67.8633L188.291 67.9638C188.224 67.9638 188.213 67.9638 188.291 67.8297L189.084 66.1321C189.367 65.4992 189.647 64.8514 189.922 64.1887C189.939 64.1558 189.948 64.1195 189.948 64.0826C189.948 64.0457 189.939 64.0094 189.922 63.9765L189.621 63.2505L189.174 62.1337L188.615 60.7711C188.426 60.2908 188.224 59.7882 188.012 59.2856C187.8 58.783 187.61 58.2804 187.42 57.789L186.873 56.404C186.873 56.337 186.873 56.3035 186.951 56.3035L188.28 56.3147Z" fill="#4D4D4D"/>
</g>
<defs>
<clipPath id="clip0_1_613">
<rect width="200" height="67.1581" fill="white" transform="translate(0.242188 0.805664)"/>
</clipPath>
</defs>
</svg>
